<?xml version="1.0" encoding="UTF-8" standalone="no"?>
<svg width="30px" height="30px" viewBox="0 0 30 30" version="1.1" xmlns="http://www.w3.org/2000/svg" xmlns:xlink="http://www.w3.org/1999/xlink" xmlns:sketch="http://www.bohemiancoding.com/sketch/ns">
    <!-- Generator: Sketch 3.4.2 (15855) - http://www.bohemiancoding.com/sketch -->
    <title>Shopping Cart Copy 10 + Shape Copy 15</title>
    <desc>Created with Sketch.</desc>
    <defs></defs>
    <g id="Page-1" stroke="none" stroke-width="1" fill="none" fill-rule="evenodd" sketch:type="MSPage">
        <g id="Shopping-Cart-Copy-10-+-Shape-Copy-15" sketch:type="MSLayerGroup">
            <g id="Shopping-Cart-Copy-10" fill="#DA251C" sketch:type="MSShapeGroup">
                <path d="M0,5.00443555 C0,2.24056212 2.23055644,0 4.99018609,0 L19.0478239,0 L30,0 L30,24.9955644 C30,27.7594379 27.7696334,30 24.9955644,30 L0,30 L0,5.00443555 Z" id="Rectangle-16-Copy" transform="translate(15.000000, 15.000000) scale(-1, 1) translate(-15.000000, -15.000000) "></path>
            </g>
            <path d="M23.1818182,16.5151515 L20.1136364,12.8787879 L20.1136364,7.42424242 L18.0681818,7.42424242 L18.0681818,10.4545455 L15,6.81818182 L6.81818182,16.5151515 L6.81818182,17.1212121 L8.86363636,17.1212121 L8.86363636,23.1818182 L13.9772727,23.1818182 L13.9772727,19.5454545 L16.0227273,19.5454545 L16.0227273,23.1818182 L21.1363636,23.1818182 L21.1363636,17.1212121 L23.1818182,17.1212121 L23.1818182,16.5151515 Z" id="Shape-Copy-15" fill="#FEFEFE" sketch:type="MSShapeGroup"></path>
        </g>
    </g>
</svg>