<?xml version="1.0" standalone="no"?><!DOCTYPE svg PUBLIC "-//W3C//DTD SVG 1.1//EN" "http://www.w3.org/Graphics/SVG/1.1/DTD/svg11.dtd"><svg width="100%" height="100%" viewBox="0 0 461 235" version="1.1" xmlns="http://www.w3.org/2000/svg" xmlns:xlink="http://www.w3.org/1999/xlink" xml:space="preserve" style="fill-rule:evenodd;clip-rule:evenodd;stroke-miterlimit:1.41421;"><g id="logojumbo"><g id="Gina-Logo-Jumbo"><g id="Group"><path id="Shape" d="M107.724,3.173c-4.336,1.028 -7.743,3.23 -10.686,6.9c-2.789,3.671 -4.182,7.342 -4.182,11.6c0,1.908 0.155,3.816 0.309,5.725c0.156,1.908 0.776,3.67 1.394,5.285c4.182,-2.055 8.673,-3.964 13.784,-5.872c5.112,-1.908 10.377,-3.377 15.953,-4.845c5.576,-1.321 11.151,-2.35 16.881,-3.23c5.576,-0.881 11.152,-1.321 16.262,-1.321c11.771,0 21.064,1.615 27.258,4.844c6.35,3.084 9.603,8.222 9.603,15.122c0,4.993 -1.703,9.103 -4.956,12.333c-3.253,3.23 -7.434,5.873 -12.08,7.488c-4.957,1.909 -9.913,3.084 -15.334,3.964c-5.42,0.735 -10.066,1.028 -14.093,1.028c-10.687,0 -19.979,-1.615 -28.032,-4.405c-8.209,-3.083 -15.643,-8.221 -22.303,-15.563c-4.646,3.378 -9.602,7.488 -14.248,12.187c-4.647,4.845 -8.983,9.836 -12.855,15.269c-3.872,5.432 -6.815,11.305 -9.292,17.324c-2.324,6.02 -3.408,12.186 -3.408,18.206c0,3.23 0.309,6.313 1.084,9.25c0.774,2.935 1.858,5.431 3.562,7.487c1.704,2.203 3.872,3.964 6.505,5.138c2.788,1.322 6.041,1.91 9.757,1.91c3.253,0 6.66,-0.735 10.687,-1.91c3.871,-1.32 7.588,-3.082 11.151,-5.138c3.562,-2.202 6.814,-4.405 9.757,-7.194c2.943,-2.643 5.111,-5.286 6.504,-8.075c1.705,-3.083 3.253,-6.02 4.647,-8.809c1.394,-2.79 3.098,-5.139 5.112,-7.194c2.013,-2.056 4.335,-3.671 7.124,-4.845c2.787,-1.175 6.194,-1.762 10.376,-1.762c4.647,0 7.124,0.881 7.124,2.349c0,1.908 -0.774,4.111 -2.168,6.46c-1.394,2.643 -3.098,4.992 -4.956,7.488c-1.859,2.495 -3.562,4.992 -5.42,7.193c-1.859,2.203 -2.943,4.112 -3.563,5.727c-1.393,3.377 -3.407,7.34 -6.35,11.892c-2.943,4.404 -6.35,8.956 -10.376,13.507c-4.027,4.699 -8.674,9.102 -13.94,13.507c-5.265,4.405 -11.151,8.369 -17.501,11.893c-6.35,3.377 -13.318,6.166 -20.753,8.368c-7.588,2.202 -15.642,3.23 -24.315,3.23c-4.491,0 -9.447,-0.587 -14.249,-1.321c-4.801,-0.735 -9.448,-2.35 -13.165,-4.698c-4.026,-2.202 -7.124,-4.992 -9.601,-8.369c-2.479,-3.376 -3.873,-7.781 -3.873,-12.626c0,-4.698 1.084,-8.515 3.253,-12.186c2.168,-3.671 6.04,-5.286 11.151,-5.286c2.943,0 5.576,0.882 8.208,2.349c2.479,1.615 3.562,4.258 3.562,8.369c0,4.699 -2.787,7.341 -8.363,8.516c-0.154,1.028 -0.31,2.055 -0.62,3.083c-0.154,1.028 -0.309,2.055 -0.309,3.23c0,3.817 0.775,6.753 2.168,8.956c1.394,2.202 3.407,3.964 5.731,4.992c2.477,1.174 5.266,1.908 8.363,2.202c3.097,0.293 6.35,0.587 9.757,0.587c8.364,0 15.797,-1.909 22.612,-5.872c6.66,-3.965 12.855,-8.957 18.43,-14.83c5.576,-5.872 10.532,-12.185 15.023,-18.939c4.491,-6.754 8.673,-12.919 12.545,-18.206l-0.619,-0.586c-3.098,2.643 -6.35,4.991 -9.912,7.34c-3.563,2.203 -7.434,4.258 -11.151,6.02c-4.027,1.761 -7.899,3.083 -12.081,4.111c-4.182,1.027 -8.518,1.615 -12.855,1.615c-10.067,0 -17.965,-2.937 -23.541,-8.515c-5.575,-5.58 -8.363,-13.215 -8.363,-22.317c0,-8.075 1.859,-15.416 5.266,-22.463c3.407,-6.901 7.899,-13.361 13.319,-19.086c5.421,-5.726 11.771,-11.012 18.431,-15.857c6.814,-4.845 13.784,-8.956 20.598,-12.479c-0.62,-1.615 -0.93,-3.084 -1.239,-4.405c-0.309,-1.322 -0.619,-3.23 -0.619,-5.285c0,-5.432 1.703,-10.13 4.645,-14.095c3.099,-3.964 7.435,-6.753 12.856,-8.075l0,1.175l0.619,0l0,0.44ZM179.562,33.79c0,-4.201 -1.699,-7.679 -4.941,-9.997c-3.243,-2.608 -9.42,-3.767 -18.376,-3.767c-4.323,0 -8.955,0.58 -14.205,1.738c-5.25,1.16 -10.501,2.753 -15.751,4.637c-5.25,1.883 -10.345,4.057 -14.977,6.664c-4.633,2.608 -8.647,4.927 -11.89,7.39c5.404,5.941 11.118,10.287 17.449,13.185c6.33,2.898 13.896,4.201 22.389,4.201c5.559,0 10.964,-0.724 15.904,-1.883c4.941,-1.304 9.265,-3.043 12.817,-5.216c3.551,-2.174 6.485,-4.782 8.493,-7.679c2.007,-2.898 3.088,-5.94 3.088,-9.273Z" style="fill:#da251c;"/><path id="Shape1" d="M199.261,96.536c-7.24,10.533 -13.249,19.603 -18.486,27.065c-5.238,7.461 -9.397,13.898 -12.785,19.164c-3.236,5.266 -5.701,9.509 -7.395,13.02c-1.695,3.364 -2.311,6.144 -2.311,8.192c0,1.756 0.308,3.073 1.078,4.097c0.77,1.024 1.849,1.609 3.082,1.609c3.08,0 7.394,-1.756 12.94,-4.974c5.545,-3.219 12.631,-8.924 21.104,-16.97c3.389,-3.218 6.624,-6.437 9.86,-9.802c3.234,-3.218 6.315,-6.29 8.934,-9.216c2.927,-3.072 5.391,-5.705 7.548,-8.193c2.157,-2.34 4.005,-4.243 5.392,-5.852l2.002,1.317c-1.848,2.195 -4.159,4.974 -6.777,7.9c-2.774,2.926 -5.546,5.998 -8.627,9.217c-3.081,3.218 -6.162,6.29 -9.397,9.508c-3.236,3.072 -6.316,6.145 -9.397,9.071c-8.781,8.192 -16.33,14.044 -22.799,17.262c-6.316,3.219 -12.17,4.975 -17.407,4.975c-5.084,0 -8.936,-1.317 -11.708,-3.951c-2.774,-2.633 -4.159,-5.998 -4.159,-10.094c0,-2.926 0.615,-5.851 1.848,-8.923c1.079,-3.073 3.081,-6.877 5.7,-11.411c2.773,-4.682 6.47,-10.241 10.937,-17.117c4.468,-6.875 10.322,-15.215 17.099,-25.162l23.724,-0.732Z" style="fill:#da251c;"/><path id="Shape2" d="M211.955,48.167c2.917,0 5.373,1.04 7.676,3.12c2.15,2.08 3.224,4.308 3.224,7.131c0,2.971 -1.228,5.496 -3.53,8.021c-2.457,2.378 -5.221,3.714 -8.291,3.714c-3.377,0 -6.294,-0.891 -8.598,-2.376c-2.455,-1.783 -3.53,-4.16 -3.53,-7.429c0,-3.267 1.228,-6.09 3.992,-8.318c2.609,-2.823 5.68,-3.863 9.057,-3.863Z" style="fill:#da251c;"/><path id="Shape3" d="M229.658,135.084c2.166,-2.638 5.261,-6.155 9.439,-10.992c4.023,-4.837 8.665,-9.381 13.925,-13.925c5.261,-4.691 10.831,-8.501 16.866,-12.019c6.035,-3.517 11.914,-5.129 17.949,-5.129c5.106,0 8.819,1.318 11.605,3.957c2.475,2.638 4.022,5.862 4.022,9.82c0,4.837 -1.701,9.821 -4.951,14.95c-3.25,5.13 -6.808,10.113 -10.831,15.244c-4.023,5.129 -7.581,9.966 -10.831,14.511c-3.25,4.69 -4.951,8.94 -4.951,13.044c0,1.759 0.618,3.078 1.393,4.104c0.773,1.026 2.475,1.613 4.487,1.613c2.165,0 5.725,-1.613 10.676,-4.691c5.106,-3.078 11.76,-8.794 20.115,-17.149c6.499,-6.449 12.688,-13.044 18.258,-19.201c5.57,-6.155 9.593,-10.992 12.533,-14.071l2.321,1.026c-4.023,4.397 -8.82,9.967 -14.699,16.417c-5.88,6.449 -12.069,13.044 -18.568,19.493c-7.891,7.915 -14.854,13.339 -20.424,16.856c-5.571,3.225 -11.451,4.984 -17.331,4.984c-5.724,0 -10.057,-1.613 -12.842,-4.398c-2.785,-3.077 -4.177,-6.449 -4.177,-10.26c0,-4.837 1.701,-9.966 4.951,-15.097c3.249,-5.129 6.808,-10.113 10.831,-15.097c4.023,-4.982 7.581,-9.526 10.831,-14.07c3.25,-4.397 4.951,-8.208 4.951,-11.579c0,-1.613 -0.618,-2.931 -1.701,-3.957c-1.084,-1.027 -2.786,-1.612 -4.952,-1.612c-3.095,0 -6.653,1.318 -10.831,3.956c-4.178,2.639 -8.51,6.01 -13.153,10.26c-4.487,4.251 -9.283,9.088 -14.079,14.364c-4.643,5.277 -9.284,10.847 -13.307,16.123c-4.178,5.276 -7.891,10.554 -11.451,15.536c-3.404,4.984 -6.189,9.235 -8.2,12.899l-23.365,0.733c8.201,-12.459 16.247,-25.063 24.602,-37.375c8.201,-12.313 16.247,-25.065 24.294,-37.963l26.149,-0.879l-30.018,38.988l0.464,0.586Z" style="fill:#da251c;"/><path id="Shape4" d="M404.377,97.278l23.817,-1.322c-1.392,2.643 -3.402,5.726 -6.031,9.251c-2.475,3.671 -5.414,7.488 -8.507,11.893c-3.093,4.259 -6.187,8.517 -9.434,13.068c-3.094,4.405 -6.032,8.957 -8.661,13.068c-2.474,4.258 -4.64,8.223 -6.341,11.894c-1.392,3.23 -2.32,6.166 -2.32,8.516c-0.154,3.083 2.32,6.02 5.722,6.02c3.558,0 8.662,-2.055 15.003,-6.02c6.341,-3.965 12.836,-9.251 19.641,-16.005c2.938,-2.79 5.723,-5.727 8.815,-8.81c3.093,-3.083 5.722,-6.166 8.661,-9.251c2.784,-3.083 5.258,-6.019 7.579,-8.516c2.32,-2.643 4.176,-4.845 5.568,-6.46l1.701,0.881c-4.022,4.992 -8.661,10.572 -13.765,16.592c-5.258,6.02 -11.599,12.48 -18.868,19.382c-7.424,6.901 -14.693,12.48 -21.653,16.885c-7.114,4.258 -14.228,6.461 -21.343,6.461c-7.268,0 -12.063,-2.643 -14.382,-7.782c-0.775,-1.322 -0.929,-2.937 -0.929,-4.405c0,-1.175 0,-2.203 0.154,-3.23c0.156,-1.028 0.31,-1.763 0.775,-2.35l-0.619,0c-4.641,4.993 -10.053,9.251 -16.085,12.628c-6.032,3.376 -12.527,5.139 -19.332,5.139c-3.558,0 -6.806,-0.735 -9.435,-1.909c-2.474,-1.322 -4.639,-3.084 -6.341,-5.285c-1.701,-2.203 -2.783,-4.846 -3.557,-7.49c-0.773,-2.789 -1.082,-5.726 -1.082,-8.809c0,-7.048 2.01,-14.096 6.186,-21.144c4.176,-7.048 9.434,-13.362 15.775,-19.088c6.341,-5.726 13.301,-10.278 21.189,-13.656c7.733,-3.376 15.156,-5.285 22.271,-5.285c5.412,0 9.588,1.027 12.682,3.23c3.093,2.203 5.568,5.433 7.578,10.131l5.568,-8.222ZM335.235,151.448c0,4.079 0.769,7.721 2.155,10.781c1.386,3.059 4.464,4.661 9.391,4.661c3.232,-0.146 6.465,-1.311 10.007,-3.788c3.54,-2.476 6.773,-5.244 10.314,-8.887c3.233,-3.642 6.465,-7.43 9.39,-11.8c3.08,-4.225 5.542,-8.74 7.697,-13.111c2.156,-4.371 4.003,-8.449 5.234,-12.383c1.232,-3.934 2.002,-7.139 2.002,-9.907c0,-3.933 -0.77,-6.847 -2.309,-9.032c-1.386,-2.185 -4.464,-3.205 -8.929,-3.205c-3.541,0 -7.082,1.02 -10.622,3.06c-3.541,2.039 -7.082,4.661 -10.314,7.866c-3.233,3.205 -6.466,6.993 -9.391,10.927c-3.079,4.079 -5.542,8.157 -7.698,12.382c-2.155,4.226 -3.848,8.304 -5.08,12.238c-1.231,3.933 -1.847,7.284 -1.847,10.198Z" style="fill:#da251c;"/></g><g><path id="Shape5" d="M365.56,22.515c0,0 -4.516,-20.881 16.508,-21.622c20.4,-0.74 11.679,32.137 10.745,34.951c-1.713,4.739 -3.893,10.367 11.991,5.479c3.893,-1.184 5.45,6.961 5.45,6.961l15.262,11.107c0,0 6.54,-0.592 6.54,8.293c0,8.886 17.13,10.515 27.409,-0.592" style="fill:none;stroke-width:0.5px;stroke:#686363;"/><path id="Shape6" d="M426.132,60.759c0,0 -15.351,1.01 -12.56,-7.932c3.102,-8.798 20.003,-1.587 20.003,-1.587c0,0 -5.427,5.048 -7.443,9.519Z" style="fill:#da251c;stroke-width:0.5px;stroke:#4a4a4a;"/><path id="Shape7" d="M375.94,19.383c-0.235,0 -6.299,-13.216 7.705,-17.621c0,0 -9.095,10.279 -1.541,14.685" style="fill:none;stroke-width:0.5px;stroke:#4a4a4a;"/><path id="Shape8" d="M431.726,51.016c0,0 -20.372,-8.195 -22.804,-6.804c-5.929,3.402 1.976,10.515 4.257,8.196c2.736,-2.784 18.547,-1.392 18.547,-1.392Z" style="fill:#da251c;stroke-width:0.5px;stroke:#4a4a4a;"/><path id="Shape9" d="M432.031,1.762c0,0 7.659,12.638 -4.004,23.789" style="fill:none;stroke-width:0.5px;stroke:#4a4a4a;"/><path id="Shape10" d="M435.708,2.643c0,0 3.943,7.044 3.355,15.93c-0.33,4.983 -2.886,10.506 -6.413,15.789" style="fill:none;stroke-width:0.5px;stroke:#4a4a4a;"/><path id="Shape11" d="M441.897,0.881c0,0 5.429,2.39 7.149,12.489c0.669,3.926 -0.075,9.822 -1.571,15.705" style="fill:none;stroke-width:0.5px;stroke:#4a4a4a;"/></g></g><path id="Hairstylist,-Inc." d="M88.3,214.617l-6.232,0l-3.32,11.493l-2.196,-0.664l3.064,-10.829l-5.21,0c-1.26,2.656 -3.209,4.853 -5.848,6.589c-2.64,1.737 -5.406,2.759 -8.301,3.065c-0.306,0.034 -0.604,0.06 -0.894,0.077c-0.289,0.017 -0.587,0.025 -0.894,0.025c-0.851,0 -1.617,-0.11 -2.298,-0.332c-0.681,-0.221 -1.26,-0.536 -1.737,-0.945c-0.443,-0.408 -0.783,-0.894 -1.022,-1.455c-0.238,-0.562 -0.357,-1.167 -0.357,-1.814c0,-0.17 0.008,-0.34 0.025,-0.511c0.017,-0.17 0.043,-0.34 0.077,-0.51c0.306,-1.635 1.277,-3.133 2.912,-4.495c1.634,-1.363 3.677,-2.044 6.129,-2.044l10.625,0c0.545,-1.736 1.081,-3.499 1.609,-5.286c0.528,-1.788 1.047,-3.567 1.558,-5.338c0.102,-0.443 0.221,-0.894 0.357,-1.354c0.136,-0.46 0.256,-0.911 0.358,-1.353c0.272,-0.886 0.536,-1.771 0.791,-2.657c0.256,-0.885 0.503,-1.77 0.741,-2.656l2.197,0.613l-5.211,18.031l5.057,0l5.415,-18.746l2.196,0.664l-5.159,18.082l5.568,0l0,2.35ZM71.75,214.617l-9.552,0c-0.34,0 -0.698,0.026 -1.073,0.077c-0.374,0.051 -0.749,0.144 -1.123,0.281c-1.158,0.34 -2.222,0.928 -3.193,1.762c-0.97,0.834 -1.456,1.864 -1.456,3.09c0,0.341 0.051,0.63 0.154,0.869c0.102,0.238 0.255,0.459 0.459,0.664c0.273,0.238 0.622,0.408 1.047,0.51c0.426,0.103 0.911,0.154 1.456,0.154l0.562,0c2.554,-0.102 5.006,-0.852 7.356,-2.248c2.349,-1.396 4.137,-3.116 5.363,-5.159ZM118.335,221.922l-0.664,2.298l-15.171,0c-1.056,0 -1.771,-0.247 -2.145,-0.741c-0.375,-0.493 -0.562,-1.115 -0.562,-1.864c0,-0.272 0.017,-0.545 0.051,-0.817c0.034,-0.273 0.085,-0.562 0.153,-0.869c0.068,-0.238 0.136,-0.485 0.204,-0.74c0.069,-0.256 0.154,-0.503 0.256,-0.741c0.102,-0.34 0.196,-0.655 0.281,-0.945c0.085,-0.289 0.162,-0.536 0.23,-0.741l-5.415,5.415c-0.851,0.851 -1.626,1.405 -2.324,1.66c-0.698,0.255 -1.285,0.383 -1.762,0.383c-0.239,0 -0.434,-0.017 -0.588,-0.051c-0.153,-0.034 -0.281,-0.068 -0.383,-0.102c-0.545,-0.17 -0.979,-0.502 -1.302,-0.996c-0.324,-0.494 -0.486,-1.03 -0.486,-1.609l0,-0.23c0,-0.085 0.018,-0.179 0.052,-0.281c0,-0.068 0.008,-0.145 0.025,-0.23c0.017,-0.085 0.043,-0.162 0.077,-0.23c0.034,-0.136 0.068,-0.264 0.102,-0.383c0.034,-0.119 0.068,-0.264 0.102,-0.434c0.136,-0.477 0.264,-1.013 0.383,-1.609c0.119,-0.596 0.264,-1.183 0.434,-1.762c0.409,-1.465 1.005,-2.81 1.788,-4.036c0.783,-1.225 1.975,-1.838 3.576,-1.838l9.858,0l-2.911,10.113c0,0.034 -0.009,0.068 -0.026,0.103c-0.017,0.034 -0.026,0.068 -0.026,0.102l0,0.204c0,0.238 0.094,0.46 0.281,0.664c0.188,0.204 0.435,0.307 0.741,0.307l15.171,0ZM102.142,212.727l-7.559,0.051c-0.341,0 -0.647,0.068 -0.92,0.205c-0.272,0.136 -0.459,0.391 -0.562,0.766l-1.941,6.742c-0.034,0.034 -0.051,0.077 -0.051,0.128l0,0.179c0,0.238 0.068,0.459 0.205,0.664c0.136,0.204 0.306,0.34 0.51,0.408c0.068,0.034 0.128,0.052 0.179,0.052l0.179,0c0.102,0 0.204,-0.018 0.306,-0.052c0.103,-0.034 0.205,-0.068 0.307,-0.102c0.17,-0.102 0.34,-0.221 0.511,-0.357c0.17,-0.137 0.323,-0.273 0.459,-0.409c0.069,-0.034 0.12,-0.068 0.154,-0.102c0.034,-0.034 0.068,-0.068 0.102,-0.102l8.121,-8.071ZM132.688,221.922l-0.664,2.298l-13.996,0c-0.817,0 -1.464,-0.247 -1.941,-0.741c-0.476,-0.493 -0.715,-1.115 -0.715,-1.864c0,-0.102 0.009,-0.204 0.026,-0.306c0.017,-0.103 0.025,-0.205 0.025,-0.307c0.034,-0.034 0.06,-0.085 0.077,-0.153c0.017,-0.068 0.025,-0.119 0.025,-0.153l3.116,-10.983l2.35,0l-3.167,10.983c0,0.034 -0.009,0.068 -0.026,0.102c-0.017,0.034 -0.025,0.051 -0.025,0.051l0,0.204c0,0.239 0.085,0.443 0.255,0.613c0.171,0.17 0.392,0.256 0.664,0.256l13.996,0ZM122.728,206.138c0,0.613 -0.222,1.141 -0.664,1.583c-0.443,0.443 -0.988,0.664 -1.635,0.664c-0.647,0 -1.192,-0.221 -1.635,-0.664c-0.442,-0.442 -0.664,-0.97 -0.664,-1.583c0,-0.647 0.222,-1.192 0.664,-1.635c0.443,-0.442 0.988,-0.664 1.635,-0.664c0.647,0 1.192,0.222 1.635,0.664c0.442,0.443 0.664,0.988 0.664,1.635ZM161.089,221.922l-0.664,2.298l-14.507,0c-1.464,0 -2.469,-0.374 -3.014,-1.124c-0.545,-0.749 -0.817,-1.651 -0.817,-2.707c0,-0.374 0.025,-0.766 0.077,-1.175c0.051,-0.408 0.127,-0.817 0.229,-1.226c0.103,-0.442 0.213,-0.885 0.332,-1.328c0.12,-0.442 0.247,-0.851 0.383,-1.226c0.171,-0.544 0.333,-1.047 0.486,-1.506c0.153,-0.46 0.281,-0.843 0.383,-1.15l-6.079,0l-2.503,8.684c-0.238,0.749 -0.689,1.396 -1.353,1.941c-0.664,0.545 -1.388,0.817 -2.171,0.817l0.664,-2.298l0.102,0c0.102,-0.035 0.187,-0.094 0.256,-0.179c0.068,-0.085 0.119,-0.179 0.153,-0.281l3.933,-13.639l2.298,0l-0.715,2.606l11.238,0l-0.664,2.349l-2.861,0l-1.787,6.232c-0.034,0.136 -0.06,0.264 -0.077,0.383c-0.017,0.119 -0.026,0.247 -0.026,0.383c0,0.579 0.205,1.081 0.613,1.507c0.409,0.426 0.937,0.639 1.584,0.639l14.507,0ZM189.387,221.922l-0.664,2.298l-10.906,0l-10.905,0l0.664,-2.298l1.123,0c0.92,0 1.788,-0.128 2.606,-0.384c0.817,-0.255 1.396,-0.945 1.736,-2.068c0,-0.068 0.009,-0.12 0.026,-0.154c0.017,-0.034 0.025,-0.085 0.025,-0.153l0,-0.255c0,-0.375 -0.085,-0.766 -0.255,-1.175c-0.17,-0.409 -0.375,-0.817 -0.613,-1.226c-0.102,-0.17 -0.213,-0.34 -0.332,-0.511c-0.119,-0.17 -0.23,-0.357 -0.332,-0.562c-0.272,-0.374 -0.528,-0.749 -0.766,-1.123c-0.239,-0.375 -0.426,-0.733 -0.562,-1.073c-0.136,0.204 -0.281,0.409 -0.434,0.613c-0.154,0.204 -0.298,0.392 -0.434,0.562c0,0.034 -0.009,0.059 -0.026,0.076c-0.017,0.017 -0.043,0.043 -0.077,0.077c-1.226,1.703 -2.349,3.278 -3.371,4.725c-1.022,1.447 -1.532,2.171 -1.532,2.171c-0.784,1.158 -1.55,1.907 -2.299,2.247c-0.749,0.341 -1.379,0.511 -1.89,0.511l0.664,-2.298c0.239,0 0.46,-0.086 0.664,-0.256c0.205,-0.17 0.392,-0.357 0.562,-0.562c0.068,-0.102 0.145,-0.204 0.23,-0.306c0.085,-0.102 0.145,-0.188 0.179,-0.256l9.807,-13.74l1.89,0.868l-1.737,2.452c-0.034,0.136 -0.068,0.264 -0.102,0.383c-0.034,0.119 -0.051,0.247 -0.051,0.383c0,0.341 0.085,0.681 0.255,1.022c0.171,0.34 0.341,0.664 0.511,0.97c0.068,0.103 0.128,0.196 0.179,0.281c0.051,0.085 0.111,0.179 0.179,0.281c0.102,0.171 0.196,0.332 0.281,0.486c0.085,0.153 0.179,0.315 0.281,0.485c0.102,0.136 0.187,0.264 0.255,0.383c0.068,0.119 0.153,0.247 0.255,0.383c0.273,0.477 0.52,0.97 0.741,1.481c0.221,0.511 0.332,1.056 0.332,1.635c0,0.17 -0.017,0.357 -0.051,0.562c-0.034,0.204 -0.085,0.408 -0.153,0.613c-0.136,0.442 -0.324,0.868 -0.562,1.277c-0.238,0.408 -0.511,0.8 -0.817,1.175l15.426,0ZM208.848,221.922l-0.664,2.298l-14.302,0c-1.464,0 -2.469,-0.366 -3.014,-1.098c-0.545,-0.732 -0.817,-1.626 -0.817,-2.682c0,-0.374 0.034,-0.766 0.102,-1.175c0.068,-0.408 0.136,-0.817 0.204,-1.226c0.102,-0.442 0.213,-0.876 0.332,-1.302c0.12,-0.426 0.247,-0.843 0.383,-1.252c0.171,-0.51 0.332,-1.004 0.486,-1.481c0.153,-0.477 0.281,-0.885 0.383,-1.226l-4.189,0l0.664,-2.349l4.189,0l2.094,-7.305l2.35,0l-2.095,7.305l4.24,0l-0.664,2.349l-4.24,0l-1.787,6.232c-0.034,0.136 -0.06,0.272 -0.077,0.409c-0.017,0.136 -0.026,0.272 -0.026,0.408c0,0.579 0.196,1.073 0.588,1.482c0.392,0.408 0.911,0.613 1.558,0.613l14.302,0ZM237.453,221.922l-0.664,2.298l-15.937,0l-0.332,0c-0.119,0 -0.23,0.017 -0.332,0.051c-0.102,0 -0.213,0.009 -0.332,0.026c-0.119,0.017 -0.23,0.025 -0.332,0.025c-0.136,0.443 -0.281,1.039 -0.434,1.788c-0.154,0.749 -0.349,1.515 -0.588,2.299c-0.34,1.192 -0.826,2.298 -1.456,3.32c-0.629,1.021 -1.506,1.532 -2.63,1.532l-6.538,0.051c0.715,-2.52 1.89,-4.733 3.524,-6.64c1.635,-1.907 3.746,-3.286 6.334,-4.138l1.839,-6.436c-0.885,1.158 -1.83,2.239 -2.835,3.244c-1.005,1.005 -2.069,1.967 -3.192,2.886c-0.852,0.749 -1.601,1.243 -2.248,1.481c-0.647,0.239 -1.192,0.358 -1.635,0.358c-0.238,0 -0.442,-0.026 -0.612,-0.077c-0.171,-0.051 -0.324,-0.093 -0.46,-0.127c-0.409,-0.171 -0.724,-0.46 -0.945,-0.869c-0.222,-0.408 -0.332,-0.868 -0.332,-1.379c0,-0.17 0.017,-0.349 0.051,-0.536c0.034,-0.188 0.068,-0.383 0.102,-0.588l2.861,-10.062l2.298,0l-2.86,10.062c0,0.034 -0.009,0.077 -0.026,0.128c-0.017,0.051 -0.025,0.111 -0.025,0.179l0,0.153c0,0.136 0.025,0.281 0.076,0.434c0.051,0.153 0.145,0.264 0.281,0.332c0.204,0.068 0.502,0.017 0.894,-0.153c0.392,-0.17 0.843,-0.477 1.354,-0.919c0.919,-0.75 1.745,-1.482 2.477,-2.197c0.732,-0.715 1.388,-1.43 1.967,-2.145c0.783,-0.92 1.489,-1.839 2.119,-2.759c0.63,-0.919 1.252,-1.873 1.865,-2.86c0.034,-0.034 0.059,-0.077 0.076,-0.128c0.017,-0.051 0.043,-0.093 0.077,-0.127l2.605,0l-3.32,11.544c0.102,0 0.213,-0.009 0.332,-0.026c0.119,-0.017 0.23,-0.025 0.332,-0.025l16.601,0ZM216.97,225.088c-1.294,0.545 -2.477,1.337 -3.55,2.376c-1.073,1.038 -1.899,2.205 -2.478,3.499l4.138,0.051c0.102,-0.034 0.23,-0.239 0.383,-0.613c0.153,-0.375 0.298,-0.818 0.434,-1.328c0.068,-0.171 0.128,-0.349 0.179,-0.537c0.051,-0.187 0.111,-0.366 0.179,-0.536c0.17,-0.647 0.323,-1.251 0.459,-1.813c0.137,-0.562 0.222,-0.928 0.256,-1.099ZM253.083,221.922l-0.664,2.298l-13.996,0c-0.817,0 -1.464,-0.255 -1.941,-0.766c-0.476,-0.511 -0.715,-1.124 -0.715,-1.839c0,-0.17 0.017,-0.332 0.051,-0.485c0.034,-0.153 0.068,-0.298 0.102,-0.434l5.875,-20.637l2.349,0l-5.925,20.637c0,0.034 -0.008,0.068 -0.025,0.102c-0.017,0.034 -0.026,0.051 -0.026,0.051l0,0.204c0,0.239 0.085,0.443 0.255,0.613c0.171,0.17 0.392,0.256 0.664,0.256l13.996,0ZM268.356,221.922l-0.664,2.298l-13.996,0c-0.817,0 -1.464,-0.247 -1.941,-0.741c-0.477,-0.493 -0.715,-1.115 -0.715,-1.864c0,-0.102 0.009,-0.204 0.026,-0.306c0.017,-0.103 0.025,-0.205 0.025,-0.307c0.034,-0.034 0.06,-0.085 0.077,-0.153c0.017,-0.068 0.025,-0.119 0.025,-0.153l3.116,-10.983l2.35,0l-3.167,10.983c0,0.034 -0.009,0.068 -0.026,0.102c-0.017,0.034 -0.025,0.051 -0.025,0.051l0,0.204c0,0.239 0.085,0.443 0.255,0.613c0.171,0.17 0.392,0.256 0.664,0.256l13.996,0ZM258.396,206.138c0,0.613 -0.222,1.141 -0.664,1.583c-0.443,0.443 -0.988,0.664 -1.635,0.664c-0.647,0 -1.192,-0.221 -1.635,-0.664c-0.442,-0.442 -0.664,-0.97 -0.664,-1.583c0,-0.647 0.222,-1.192 0.664,-1.635c0.443,-0.442 0.988,-0.664 1.635,-0.664c0.647,0 1.192,0.222 1.635,0.664c0.442,0.443 0.664,0.988 0.664,1.635ZM296.757,221.922l-0.665,2.298l-10.905,0l-10.906,0l0.664,-2.298l1.124,0c0.92,0 1.788,-0.128 2.605,-0.384c0.818,-0.255 1.396,-0.945 1.737,-2.068c0,-0.068 0.009,-0.12 0.026,-0.154c0.017,-0.034 0.025,-0.085 0.025,-0.153l0,-0.128l0,-0.127c0,-0.375 -0.085,-0.766 -0.255,-1.175c-0.171,-0.409 -0.375,-0.817 -0.613,-1.226c-0.102,-0.17 -0.213,-0.34 -0.332,-0.511c-0.119,-0.17 -0.23,-0.357 -0.332,-0.562c-0.273,-0.374 -0.528,-0.749 -0.767,-1.123c-0.238,-0.375 -0.425,-0.733 -0.561,-1.073c-0.137,0.204 -0.281,0.409 -0.435,0.613c-0.153,0.204 -0.298,0.392 -0.434,0.562c0,0.034 -0.008,0.059 -0.025,0.076c-0.017,0.017 -0.043,0.043 -0.077,0.077c-1.226,1.703 -2.35,3.278 -3.371,4.725c-1.022,1.447 -1.533,2.171 -1.533,2.171c-0.783,1.158 -1.549,1.907 -2.298,2.247c-0.749,0.341 -1.379,0.511 -1.89,0.511l0.664,-2.298c0.238,0 0.46,-0.086 0.664,-0.256c0.204,-0.17 0.392,-0.357 0.562,-0.562c0.068,-0.102 0.145,-0.204 0.23,-0.306c0.085,-0.102 0.144,-0.188 0.178,-0.256l9.808,-13.74l1.89,0.868l-1.737,2.452c-0.034,0.136 -0.068,0.264 -0.102,0.383c-0.034,0.119 -0.051,0.247 -0.051,0.383c0,0.341 0.085,0.681 0.255,1.022c0.17,0.34 0.341,0.664 0.511,0.97c0.068,0.103 0.128,0.196 0.179,0.281c0.051,0.085 0.11,0.179 0.179,0.281c0.102,0.171 0.195,0.332 0.28,0.486c0.086,0.153 0.179,0.315 0.281,0.485c0.103,0.136 0.188,0.264 0.256,0.383c0.068,0.119 0.153,0.247 0.255,0.383c0.273,0.477 0.52,0.97 0.741,1.481c0.221,0.511 0.332,1.056 0.332,1.635c0,0.17 -0.017,0.357 -0.051,0.562c-0.034,0.204 -0.085,0.408 -0.153,0.613c-0.137,0.442 -0.324,0.868 -0.562,1.277c-0.239,0.408 -0.511,0.8 -0.818,1.175l15.427,0ZM316.218,221.922l-0.664,2.298l-14.302,0c-1.465,0 -2.469,-0.366 -3.014,-1.098c-0.545,-0.732 -0.817,-1.626 -0.817,-2.682c0,-0.374 0.034,-0.766 0.102,-1.175c0.068,-0.408 0.136,-0.817 0.204,-1.226c0.102,-0.442 0.213,-0.876 0.332,-1.302c0.119,-0.426 0.247,-0.843 0.383,-1.252c0.17,-0.51 0.332,-1.004 0.485,-1.481c0.154,-0.477 0.281,-0.885 0.384,-1.226l-4.189,0l0.664,-2.349l4.189,0l2.094,-7.305l2.349,0l-2.094,7.305l4.24,0l-0.664,2.349l-4.24,0l-1.788,6.232c-0.034,0.136 -0.059,0.272 -0.076,0.409c-0.017,0.136 -0.026,0.272 -0.026,0.408c0,0.579 0.196,1.073 0.588,1.482c0.391,0.408 0.911,0.613 1.558,0.613l14.302,0ZM318.312,223.045l0,0.205c0,0.034 -0.008,0.068 -0.025,0.102c-0.017,0.034 -0.026,0.068 -0.026,0.102l0,0.102c0,0.034 -0.017,0.068 -0.051,0.102l-1.022,3.627l-2.4,0l0.715,-2.452c-0.341,-0.17 -0.613,-0.417 -0.817,-0.741c-0.205,-0.323 -0.307,-0.672 -0.307,-1.047c0,-0.579 0.196,-1.055 0.587,-1.43c0.392,-0.375 0.86,-0.562 1.405,-0.562c0.545,0 1.005,0.187 1.379,0.562c0.375,0.375 0.562,0.851 0.562,1.43ZM353.353,197.25c0,0 -0.341,1.158 -1.022,3.473c-0.681,2.316 -1.43,4.887 -2.247,7.713c-0.17,0.579 -0.341,1.167 -0.511,1.763c-0.17,0.596 -0.34,1.183 -0.511,1.762c0.477,0.238 0.979,0.46 1.507,0.664c0.528,0.204 1.098,0.392 1.711,0.562l-0.664,2.247c-0.545,-0.17 -1.081,-0.349 -1.609,-0.536c-0.528,-0.187 -1.047,-0.4 -1.558,-0.638c-0.476,1.634 -0.877,2.996 -1.2,4.086c-0.324,1.09 -0.485,1.634 -0.485,1.634c-0.307,1.124 -0.945,2.086 -1.916,2.886c-0.97,0.801 -2.017,1.252 -3.141,1.354l-0.179,0l-0.179,0l-13.587,0l0,-2.35l13.945,0c0.613,-0.102 1.2,-0.391 1.762,-0.868c0.562,-0.477 0.928,-1.022 1.098,-1.634c0,0 0.17,-0.613 0.511,-1.839c0.341,-1.226 0.766,-2.725 1.277,-4.495c-1.226,-0.886 -2.128,-1.95 -2.707,-3.193c-0.579,-1.243 -0.869,-2.699 -0.869,-4.367c0,-0.477 0.026,-0.962 0.077,-1.456c0.051,-0.494 0.111,-1.013 0.179,-1.558c0.068,-0.477 0.281,-1.251 0.638,-2.324c0.358,-1.073 0.809,-2.205 1.354,-3.397c0.749,-1.498 1.652,-2.886 2.707,-4.163c1.056,-1.277 2.248,-1.915 3.576,-1.915c0.374,0 0.715,0.085 1.021,0.255c0.307,0.17 0.579,0.392 0.818,0.664c0.204,0.273 0.357,0.605 0.459,0.996c0.103,0.392 0.171,0.775 0.205,1.149l0,0.613c0,0.409 -0.034,0.801 -0.102,1.175c-0.069,0.375 -0.12,0.698 -0.154,0.971c-0.034,0.17 -0.068,0.315 -0.102,0.434c-0.034,0.119 -0.068,0.23 -0.102,0.332ZM351.31,193.01c-0.239,0 -0.494,0.077 -0.766,0.23c-0.273,0.153 -0.545,0.366 -0.818,0.639c-0.511,0.51 -1.013,1.175 -1.507,1.992c-0.493,0.817 -0.945,1.668 -1.353,2.554c-0.409,0.817 -0.741,1.626 -0.996,2.426c-0.256,0.8 -0.434,1.456 -0.537,1.967c-0.068,0.476 -0.127,0.936 -0.178,1.379c-0.051,0.443 -0.077,0.868 -0.077,1.277c0,1.09 0.17,2.052 0.511,2.886c0.34,0.834 0.834,1.575 1.481,2.222c0.102,-0.409 0.221,-0.826 0.358,-1.252c0.136,-0.425 0.255,-0.86 0.357,-1.302c0.034,-0.034 0.051,-0.068 0.051,-0.102l0,-0.103c0.818,-2.826 1.567,-5.405 2.248,-7.738c0.681,-2.333 1.021,-3.499 1.021,-3.499c0.171,-0.511 0.281,-0.979 0.332,-1.405c0.052,-0.425 0.077,-0.792 0.077,-1.098c0,-0.272 -0.017,-0.511 -0.051,-0.715c-0.034,-0.204 -0.085,-0.324 -0.153,-0.358ZM382.468,221.922l-0.664,2.298l-13.842,0c-1.669,0 -2.81,-0.323 -3.423,-0.97c-0.613,-0.647 -0.919,-1.448 -0.919,-2.401c0,-0.375 0.034,-0.775 0.102,-1.201c0.068,-0.425 0.153,-0.859 0.256,-1.302c0.068,-0.273 0.144,-0.536 0.229,-0.792c0.086,-0.255 0.179,-0.519 0.281,-0.792c0.205,-0.681 0.392,-1.311 0.562,-1.89c0.17,-0.578 0.256,-1.072 0.256,-1.481c0,-0.272 -0.051,-0.485 -0.154,-0.638c-0.102,-0.154 -0.255,-0.247 -0.459,-0.281l-0.077,0c-0.017,0 -0.026,-0.017 -0.026,-0.051l-0.076,0l-0.077,0c-0.204,0 -0.408,0.068 -0.613,0.204c-0.204,0.136 -0.391,0.289 -0.562,0.46c-0.034,0.068 -0.076,0.127 -0.127,0.178c-0.051,0.052 -0.094,0.111 -0.128,0.179l-8.173,10.778l-1.634,0l3.933,-13.791l2.35,0l-1.993,6.946l3.729,-4.903c0.239,-0.307 0.468,-0.571 0.69,-0.792c0.221,-0.221 0.451,-0.417 0.689,-0.587c0.443,-0.375 0.894,-0.63 1.354,-0.767c0.46,-0.136 0.877,-0.204 1.251,-0.204l0.358,0c0.102,0 0.204,0.017 0.306,0.051c0.716,0.17 1.209,0.468 1.482,0.894c0.272,0.426 0.408,0.928 0.408,1.507c0,0.511 -0.076,1.047 -0.229,1.609c-0.154,0.562 -0.315,1.132 -0.486,1.711c-0.034,0.068 -0.059,0.136 -0.076,0.204c-0.017,0.069 -0.026,0.137 -0.026,0.205c-0.238,0.647 -0.443,1.277 -0.613,1.89c-0.17,0.613 -0.255,1.175 -0.255,1.685c0,0.613 0.187,1.107 0.562,1.482c0.374,0.374 1.038,0.562 1.992,0.562l13.842,0ZM405.046,221.922l-0.664,2.298l-17.674,0c-2.145,0 -3.601,-0.468 -4.367,-1.405c-0.766,-0.936 -1.15,-2.085 -1.15,-3.447c0,-0.511 0.043,-1.039 0.128,-1.584c0.085,-0.545 0.196,-1.09 0.332,-1.635c0.102,-0.476 0.221,-0.944 0.358,-1.404c0.136,-0.46 0.272,-0.928 0.408,-1.405c0.205,-0.545 0.383,-1.064 0.537,-1.558c0.153,-0.494 0.298,-0.945 0.434,-1.353l8.428,0c0.749,0 1.251,0.178 1.507,0.536c0.255,0.357 0.383,0.792 0.383,1.302c0,0.205 -0.017,0.409 -0.051,0.613c-0.034,0.205 -0.068,0.409 -0.102,0.613c-0.034,0.171 -0.077,0.358 -0.128,0.562c-0.051,0.205 -0.111,0.392 -0.179,0.562c-0.068,0.273 -0.144,0.528 -0.23,0.766c-0.085,0.239 -0.144,0.443 -0.178,0.613l-2.35,0c0.034,-0.068 0.085,-0.196 0.153,-0.383c0.068,-0.187 0.153,-0.417 0.256,-0.689c0.034,-0.103 0.059,-0.196 0.076,-0.281c0.017,-0.086 0.043,-0.162 0.077,-0.23c0.068,-0.273 0.128,-0.52 0.179,-0.741c0.051,-0.221 0.076,-0.417 0.076,-0.587c0,-0.102 -0.008,-0.179 -0.025,-0.23c-0.017,-0.051 -0.06,-0.077 -0.128,-0.077l-6.13,0c-0.068,0.307 -0.161,0.622 -0.281,0.945c-0.119,0.324 -0.229,0.673 -0.332,1.047c-0.068,0.205 -0.136,0.426 -0.204,0.664c-0.068,0.239 -0.136,0.477 -0.204,0.715c-0.136,0.443 -0.239,0.894 -0.307,1.354c-0.068,0.46 -0.102,0.894 -0.102,1.303c0,0.885 0.264,1.626 0.792,2.222c0.528,0.596 1.524,0.894 2.988,0.894l17.674,0ZM407.395,223.045c0,0.545 -0.195,1.005 -0.587,1.379c-0.392,0.375 -0.86,0.562 -1.405,0.562c-0.545,0 -1.013,-0.187 -1.404,-0.562c-0.392,-0.374 -0.588,-0.834 -0.588,-1.379c0,-0.579 0.196,-1.055 0.588,-1.43c0.391,-0.375 0.859,-0.562 1.404,-0.562c0.545,0 1.013,0.187 1.405,0.562c0.392,0.375 0.587,0.851 0.587,1.43Z" style="fill:#676363;"/></g></svg>
