<?xml version="1.0" encoding="UTF-8" standalone="no"?>
<svg width="30px" height="30px" viewBox="0 0 30 30" version="1.1" xmlns="http://www.w3.org/2000/svg" xmlns:xlink="http://www.w3.org/1999/xlink" xmlns:sketch="http://www.bohemiancoding.com/sketch/ns">
    <!-- Generator: Sketch 3.4.2 (15855) - http://www.bohemiancoding.com/sketch -->
    <title>Opening Hours Icon</title>
    <desc>Created with Sketch.</desc>
    <defs></defs>
    <g id="Page-1" stroke="none" stroke-width="1" fill="none" fill-rule="evenodd" sketch:type="MSPage">
        <g id="Opening-Hours-Icon" sketch:type="MSLayerGroup">
            <g id="Shopping-Cart-Copy-7" fill="#DA251C" sketch:type="MSShapeGroup">
                <path d="M0,5.00443555 C0,2.24056212 2.23055644,0 4.99018609,0 L19.0478239,0 L30,0 L30,24.9955644 C30,27.7594379 27.7696334,30 24.9955644,30 L0,30 L0,5.00443555 Z" id="Rectangle-16-Copy" transform="translate(15.000000, 15.000000) scale(-1, 1) translate(-15.000000, -15.000000) "></path>
            </g>
            <path d="M17.3451136,18.79125 L13.9772727,15.4234091 L13.9772727,10.9090909 L16.0227273,10.9090909 L16.0227273,14.5765909 L18.79125,17.3451136 L17.3451136,18.79125 Z M15,6.81818182 C10.4810795,6.81818182 6.81818182,10.4810795 6.81818182,15 C6.81818182,19.5189205 10.4810795,23.1818182 15,23.1818182 C19.5189205,23.1818182 23.1818182,19.5189205 23.1818182,15 C23.1818182,10.4810795 19.5189205,6.81818182 15,6.81818182 L15,6.81818182 Z M15,21.1363636 C11.6111932,21.1363636 8.86363636,18.3888068 8.86363636,15 C8.86363636,11.6111932 11.6111932,8.86363636 15,8.86363636 C18.3888068,8.86363636 21.1363636,11.6111932 21.1363636,15 C21.1363636,18.3888068 18.3888068,21.1363636 15,21.1363636 L15,21.1363636 Z" id="Shape-Copy-19" fill="#FFFFFF" sketch:type="MSShapeGroup"></path>
        </g>
    </g>
</svg>