<?xml version="1.0" encoding="UTF-8" standalone="no"?>
<svg width="30px" height="30px" viewBox="0 0 30 30" version="1.1" xmlns="http://www.w3.org/2000/svg" xmlns:xlink="http://www.w3.org/1999/xlink" xmlns:sketch="http://www.bohemiancoding.com/sketch/ns">
    <!-- Generator: Sketch 3.4.2 (15855) - http://www.bohemiancoding.com/sketch -->
    <title>facebook</title>
    <desc>Created with Sketch.</desc>
    <defs></defs>
    <g id="Page-1" stroke="none" stroke-width="1" fill="none" fill-rule="evenodd" sketch:type="MSPage">
        <g id="facebook" sketch:type="MSLayerGroup">
            <g id="Page-1" sketch:type="MSShapeGroup">
                <g id="facebook">
                    <g id="Page-1">
                        <g id="Rectangle-54-+-Shape-Copy-11">
                            <rect id="Rectangle-54" fill="#FFFFFF" x="5" y="1" width="20" height="29"></rect>
                            <path d="M4.9996875,0 C2.23875,0 -1.77635684e-15,2.23875 -1.77635684e-15,5.000625 L-1.77635684e-15,24.999375 C-1.77635684e-15,27.76125 2.2378125,30 4.9996875,30 L15,30 L15,16.875 L11.25,16.875 L11.25,13.125 L15,13.125 L15,10.3125 C15,7.7240625 17.0990625,5.625 19.6875,5.625 L24.375,5.625 L24.375,9.375 L19.6875,9.375 C19.17,9.375 18.75,9.795 18.75,10.3125 L18.75,13.125 L23.90625,13.125 L22.96875,16.875 L18.75,16.875 L18.75,30 L25.0003125,30 C27.76125,30 30,27.76125 30,24.999375 L30,5.000625 C30,2.23875 27.7621875,0 25.0003125,0 L4.9996875,0 L4.9996875,0 L4.9996875,0 Z" id="Shape-Copy-11" fill="#DA251C"></path>
                        </g>
                    </g>
                </g>
            </g>
        </g>
    </g>
</svg>