<?xml version="1.0" standalone="no"?>
<!DOCTYPE svg PUBLIC "-//W3C//DTD SVG 1.1//EN" "http://www.w3.org/Graphics/SVG/1.1/DTD/svg11.dtd">
<svg width="100%" height="100%" viewBox="0 0 97 90" version="1.1" xmlns="http://www.w3.org/2000/svg" xmlns:xlink="http://www.w3.org/1999/xlink" xml:space="preserve" style="fill-rule:evenodd;clip-rule:evenodd;stroke-miterlimit:1.41421;">
    <g id="Group-Copy" transform="matrix(1,0,0,1,1,1)">
        <path id="Shape" d="M0.41,25.589C0.41,25.589 -4.134,0.89 17.022,0.015C37.552,-0.861 28.776,38.026 27.836,41.354C26.112,46.959 23.918,53.615 39.903,47.835C43.821,46.433 45.388,56.068 45.388,56.068L60.746,69.205C60.746,69.205 67.329,68.504 67.329,79.014C67.329,89.524 84.567,91.451 94.911,78.314" style="fill:none;stroke-width:1px;stroke:rgb(87,87,87);"/>
        <path id="Shape1" d="M60.656,71.567C60.656,71.567 45.046,72.789 47.884,61.967C51.038,51.319 68.225,60.047 68.225,60.047C68.225,60.047 62.706,66.156 60.656,71.567Z" style="fill:rgb(218,37,28);stroke-width:1px;stroke:rgb(86,86,86);"/>
        <path id="Shape2" d="M10.123,22.072C9.891,22.072 3.906,6.295 17.728,1.036C17.728,1.036 8.751,13.307 16.207,18.566" style="fill:none;stroke-width:1px;stroke:rgb(86,86,86);"/>
        <path id="Shape3" d="M67.008,59.295C67.008,59.295 46.157,49.827 43.667,51.435C37.599,55.365 45.69,63.583 48.024,60.903C50.825,57.688 67.008,59.295 67.008,59.295Z" style="fill:rgb(218,37,28);stroke-width:1px;stroke:rgb(87,87,87);"/>
        <path id="Shape4" d="M65.904,1.036C65.904,1.036 73.104,15.816 62.141,28.858" style="fill:none;stroke-width:1px;stroke:rgb(87,87,87);"/>
        <path id="Shape5" d="M69.882,1.714C69.882,1.714 73.589,10.153 73.036,20.799C72.726,26.77 70.324,33.386 67.008,39.715" style="fill:none;stroke-width:1px;stroke:rgb(87,87,87);"/>
        <path id="Shape6" d="M76.134,0.357C76.134,0.357 81.493,3.234 83.191,15.386C83.851,20.112 83.117,27.207 81.64,34.286" style="fill:none;stroke-width:1px;stroke:rgb(88,88,88);"/>
    </g>
</svg>
