<?xml version="1.0" encoding="UTF-8" standalone="no"?>
<svg width="32px" height="32px" viewBox="0 0 32 32" version="1.1" xmlns="http://www.w3.org/2000/svg" xmlns:xlink="http://www.w3.org/1999/xlink" xmlns:sketch="http://www.bohemiancoding.com/sketch/ns">
    <!-- Generator: Sketch 3.4 (15575) - http://www.bohemiancoding.com/sketch -->
    <title>short11</title>
    <desc>Created with Sketch.</desc>
    <defs></defs>
    <g id="Page-1" stroke="none" stroke-width="1" fill="none" fill-rule="evenodd" sketch:type="MSPage">
        <g id="ginaicon" sketch:type="MSArtboardGroup" fill="#DA251C">
            <g id="short11" sketch:type="MSLayerGroup">
                <g id="Group" sketch:type="MSShapeGroup">
                    <path d="M28.5006452,22.9976774 C28.3643871,22.5403871 28.132129,22.1099355 27.7935484,21.7476129 C26.8789677,20.7741935 25.4750968,20.5068387 24.3458065,21.0456774 C24.3354839,21.0467097 24.3313548,21.0436129 24.3210323,21.0456774 C23.0430968,21.6051613 21.0652903,20.3829677 20.0526452,20.0443871 C19.0389677,19.7047742 18.1904516,18.6590968 17.3316129,18.4712258 C17.2779355,18.4588387 17.1819355,18.4227097 17.0508387,18.3628387 L11.5024516,6.28335484 L14.5052903,16.8216774 C14.5052903,16.8216774 14.5310968,16.9197419 14.5734194,17.0910968 C10.7664516,15.0430968 4.81651613,11.1432258 4.81651613,11.1432258 C4.81651613,11.1432258 14.8975484,20.1249032 15.259871,20.4263226 C15.5912258,22.4330323 17.6061935,24.8165161 16.0299355,25.9096774 C16.0268387,25.915871 16.0299355,25.9220645 16.0268387,25.9282581 C14.8221935,26.7581935 14.5424516,28.5336774 15.4270968,29.9571613 C16.3334194,31.4178065 18.1202581,31.9556129 19.4095484,31.1545806 C20.2012903,30.6621935 20.6007742,29.6547097 20.9187097,28.6843871 C20.6637419,27.899871 20.4510968,27.616 20.1011613,27.0523871 C19.872,26.6859355 19.5870968,26.3772903 19.2691613,26.1326452 C18.5816774,25.4658065 16.5966452,20.5109677 16.8082581,20.0505806 C19.2877419,20.0381935 22.4371613,21.9994839 22.7809032,23.7945806 C22.784,23.7945806 22.7901935,23.7904516 22.7932903,23.7894194 C22.8469677,24.4820645 23.1246452,25.1427097 23.6149677,25.6650323 C24.6018065,26.7189677 26.1667097,26.9553548 27.3341935,26.2317419 C27.4869677,26.1367742 27.6314839,26.0252903 27.7636129,25.9024516 C28.2394839,25.4565161 28.5212903,24.8629677 28.6018065,24.2136774 C28.8722581,24.1197419 29.2645161,24.0289032 29.6350968,24.1145806 C30.9997419,24.4861935 31.3796129,23.3620645 31.4116129,23.0110968 C31.4415484,22.6787097 29.4534194,23.6459355 28.5006452,22.9976774 L28.5006452,22.9976774 Z M16.0051613,19.3992258 C15.7254194,19.5716129 15.3569032,19.4859355 15.1834839,19.2072258 C15.0100645,18.9285161 15.0967742,18.5589677 15.3765161,18.3855484 C15.6562581,18.212129 16.0237419,18.2978065 16.1971613,18.5775484 C16.3705806,18.8572903 16.283871,19.2247742 16.0051613,19.3992258 L16.0051613,19.3992258 Z M17.540129,26.4340645 C17.6103226,26.4412903 17.6784516,26.4495484 17.7486452,26.4557419 C18.3380645,26.5548387 18.9233548,26.9388387 19.3021935,27.5489032 C19.9370323,28.5687742 19.7615484,29.8270968 18.9130323,30.3545806 C18.0655484,30.8820645 16.859871,30.4805161 16.2260645,29.4606452 C15.5932903,28.4397419 15.7667097,27.1814194 16.6141935,26.6549677 C16.896,26.4805161 17.216,26.4175484 17.540129,26.4340645 L17.540129,26.4340645 Z M27.1205161,25.216 C27.0338065,25.2975484 26.9388387,25.3708387 26.8387097,25.4327742 C26.0500645,25.9220645 24.9837419,25.7486452 24.3024516,25.0219355 C23.9205161,24.6152258 23.712,24.0939355 23.7130323,23.5550968 C23.7140645,23.0276129 23.9194839,22.5445161 24.2900645,22.1976774 C24.3757419,22.116129 24.4707097,22.0428387 24.5708387,21.979871 C25.3584516,21.4926452 26.4247742,21.664 27.1070968,22.3917419 C27.4900645,22.7994839 27.6996129,23.3197419 27.6985806,23.8575484 C27.6965161,24.3860645 27.4900645,24.868129 27.1205161,25.216 L27.1205161,25.216 Z" id="Shape"></path>
                    <path d="M7.67070968,14.7230968 C6.03767742,13.2686452 4.66683871,12.0474839 4.30141935,11.7223226 L5.24077419,10.496 C5.2923871,10.5300645 9.71458065,13.4234839 13.3243871,15.5065806 L10.7571613,6.496 L12.2054194,5.96025806 L17.4007742,17.2738065 C17.3687742,17.0436129 17.6536774,17.5504516 17.7940645,17.8116129 C17.8343226,17.8260645 17.8756129,17.8394839 17.915871,17.8570323 C18.1130323,17.4503226 18.8449032,15.7925161 18.2750968,14.6126452 C19.4033548,14.5692903 21.0260645,17.216 21.3945806,19.7646452 C21.6433548,19.8730323 21.9045161,19.9814194 22.1708387,20.0836129 C22.244129,19.6748387 22.2988387,19.2670968 22.3349677,18.8779355 C22.4929032,17.1850323 25.4936774,12.5832258 23.643871,6.26787097 C21.7930323,-0.0495483871 13.2665806,-0.409806452 8.43974194,0.221935484 C3.61290323,0.852645161 1.17574194,4.32619355 0.138322581,9.51432258 C-0.900129032,14.7024516 4.19819355,22.6322581 5.95716129,24.3581935 C5.64129032,23.6923871 5.46167742,21.9220645 5.46167742,21.9220645 C5.46167742,21.9220645 5.48335484,21.2903226 6.27406452,22.1470968 C5.96954839,21.5834839 5.4276129,20.3994839 5.4276129,20.3994839 C5.4276129,20.3994839 5.59690323,19.9597419 6.50012903,20.2972903 C6.10580645,20.1734194 5.10141935,18.8985806 5.10141935,18.8985806 C5.10141935,18.8985806 5.03432258,18.436129 6.13883871,18.5372903 C5.89109677,18.1316129 3.71303226,15.5024516 4.82993548,13.5741935 C4.86606452,13.4792258 6.13058065,14.0025806 7.67070968,14.7230968 L7.67070968,14.7230968 Z" id="Shape"></path>
                </g>
            </g>
        </g>
    </g>
</svg>