<?xml version="1.0" standalone="no"?>
<!DOCTYPE svg PUBLIC "-//W3C//DTD SVG 1.1//EN" "http://www.w3.org/Graphics/SVG/1.1/DTD/svg11.dtd">
<svg width="100%" height="100%" viewBox="0 0 39 34" version="1.1" xmlns="http://www.w3.org/2000/svg" xmlns:xlink="http://www.w3.org/1999/xlink" xml:space="preserve" style="fill-rule:evenodd;clip-rule:evenodd;stroke-miterlimit:1.41421;">
    <g id="Shape" transform="matrix(1,0,0,1,1,1)">
        <path d="M27,0C24.524,0 22.144,0.921 20.296,2.595C19.594,3.23 18.993,3.952 18.5,4.749C18.007,3.952 17.406,3.23 16.704,2.594C14.856,0.921 12.476,0 10,0C4.486,0 0,4.486 0,10C0,13.722 1.158,16.66 3.871,19.825C7.813,24.425 17.79,31.445 18.213,31.742C18.299,31.803 18.4,31.833 18.5,31.833C18.6,31.833 18.701,31.803 18.787,31.742C19.21,31.445 29.187,24.425 33.13,19.825C35.842,16.66 37,13.722 37,10C37,4.486 32.514,0 27,0ZM32.371,19.175C28.876,23.251 20.191,29.516 18.5,30.72C16.809,29.516 8.124,23.251 4.63,19.175C2.085,16.206 1,13.462 1,10C1,5.037 5.038,1 10,1C12.227,1 14.37,1.829 16.032,3.335C16.87,4.095 17.55,4.991 18.052,5.999C18.222,6.339 18.778,6.339 18.948,5.999C19.45,4.991 20.13,4.095 20.968,3.336C22.63,1.829 24.773,1 27,1C31.962,1 36,5.037 36,10C36,13.462 34.915,16.206 32.371,19.175Z" style="fill:none;stroke-width:2px;stroke:rgb(151,151,151);"/>
    </g>
</svg>
