<?xml version="1.0" encoding="UTF-8" standalone="no"?>
<svg width="38px" height="38px" viewBox="0 0 38 38" version="1.1" xmlns="http://www.w3.org/2000/svg" xmlns:xlink="http://www.w3.org/1999/xlink" xmlns:sketch="http://www.bohemiancoding.com/sketch/ns">
    <!-- Generator: Sketch 3.4.2 (15855) - http://www.bohemiancoding.com/sketch -->
    <title>instagram</title>
    <desc>Created with Sketch.</desc>
    <defs></defs>
    <g id="Page-1" stroke="none" stroke-width="1" fill="none" fill-rule="evenodd" sketch:type="MSPage">
        <g id="instagram" sketch:type="MSLayerGroup" transform="translate(4.000000, 2.000000)" fill="#DA251C">
            <g id="Page-1" sketch:type="MSShapeGroup">
                <g id="Rectangle-55-+-Shape-Copy-9">
                    <path d="M25.0196351,-0.00025 L4.98086486,-0.00025 C2.24152981,-0.00025 0,2.24127981 0,4.98061486 L0,25.0193851 C0,27.7587202 2.24152981,30.00025 4.98086486,30.00025 L25.0196351,30.00025 C27.7589702,30.00025 30.0005,27.7587202 30.0005,25.0193851 L30.0005,4.98061486 C30.0005,2.24127981 27.7589702,-0.00025 25.0196351,-0.00025 L25.0196351,-0.00025 L25.0196351,-0.00025 Z M9.60360995,13.1245586 L20.3968901,13.1245586 C20.6012621,13.7123625 20.7128229,14.3432908 20.7128229,14.9995313 C20.7128229,18.1494853 18.1497353,20.7125729 14.9997813,20.7125729 C11.8498272,20.7125729 9.28673957,18.1494853 9.28673957,14.9995313 C9.28673957,14.3432908 9.39830044,13.7123625 9.60360995,13.1245586 L9.60360995,13.1245586 L9.60360995,13.1245586 Z M26.2496172,13.1264336 L26.2496172,24.3743945 C26.2496172,25.4056295 25.4058795,26.2493672 24.3746445,26.2493672 L5.62491797,26.2493672 C4.59368301,26.2493672 3.74994531,25.4056295 3.74994531,24.3743945 L3.74994531,13.1245586 L6.68240255,13.1245586 C6.54646703,13.7282998 6.47428058,14.3554781 6.47428058,14.9995313 C6.47428058,19.7000877 10.2982873,23.5250319 14.9997813,23.5250319 C19.7012752,23.5250319 23.5252819,19.7010252 23.5252819,14.9995313 C23.5252819,14.3554781 23.4530955,13.7282998 23.31716,13.1245586 L26.2496172,13.1264336 L26.2496172,13.1264336 L26.2496172,13.1264336 Z M26.2496172,6.5621543 C26.2496172,7.07777178 25.8277484,7.49964063 25.3121309,7.49964063 L23.4371582,7.49964063 C22.9215407,7.49964063 22.4996719,7.07777178 22.4996719,6.5621543 L22.4996719,4.68718164 C22.4996719,4.17156416 22.9215407,3.74969531 23.4371582,3.74969531 L25.3121309,3.74969531 C25.8277484,3.74969531 26.2496172,4.17156416 26.2496172,4.68718164 L26.2496172,6.5621543 L26.2496172,6.5621543 L26.2496172,6.5621543 Z" id="Shape-Copy-9"></path>
                </g>
            </g>
        </g>
    </g>
</svg>