<?xml version="1.0" encoding="UTF-8" standalone="no"?>
<svg width="32px" height="32px" viewBox="0 0 32 32" version="1.1" xmlns="http://www.w3.org/2000/svg" xmlns:xlink="http://www.w3.org/1999/xlink" xmlns:sketch="http://www.bohemiancoding.com/sketch/ns">
    <!-- Generator: Sketch 3.4.2 (15855) - http://www.bohemiancoding.com/sketch -->
    <title>Shape</title>
    <desc>Created with Sketch.</desc>
    <defs></defs>
    <g id="Page-1" stroke="none" stroke-width="1" fill="none" fill-rule="evenodd" sketch:type="MSPage">
        <path d="M26.688,0 L5.313,0 C2.391,0 -8.8817842e-16,2.391 -8.8817842e-16,5.313 L-8.8817842e-16,26.688 C-8.8817842e-16,29.61 2.391,32.001 5.313,32.001 L26.688,32.001 C29.61,32.001 32.001,29.61 32.001,26.688 L32.001,5.313 C32.001,2.391 29.61,-8.8817842e-16 26.688,-8.8817842e-16 L26.688,0 Z M10.244,14 L21.757,14 C21.975,14.627 22.094,15.3 22.094,16 C22.094,19.36 19.36,22.094 16,22.094 C12.64,22.094 9.906,19.36 9.906,16 C9.906,15.3 10.025,14.627 10.244,14 L10.244,14 Z M28,14.002 L28,26 C28,27.1 27.1,28 26,28 L6,28 C4.9,28 4,27.1 4,26 L4,14 L7.128,14 C6.983,14.644 6.906,15.313 6.906,16 C6.906,21.014 10.985,25.094 16,25.094 C21.015,25.094 25.094,21.015 25.094,16 C25.094,15.313 25.017,14.644 24.872,14 L28,14.002 L28,14.002 Z M28,7 C28,7.55 27.55,8 27,8 L25,8 C24.45,8 24,7.55 24,7 L24,5 C24,4.45 24.45,4 25,4 L27,4 C27.55,4 28,4.45 28,5 L28,7 L28,7 Z" id="Shape" fill="#DA251C" sketch:type="MSShapeGroup"></path>
    </g>
</svg>