<?xml version="1.0" encoding="UTF-8" standalone="no"?>
<svg width="30px" height="30px" viewBox="0 0 30 30" version="1.1" xmlns="http://www.w3.org/2000/svg" xmlns:xlink="http://www.w3.org/1999/xlink" xmlns:sketch="http://www.bohemiancoding.com/sketch/ns">
    <!-- Generator: Sketch 3.4.2 (15855) - http://www.bohemiancoding.com/sketch -->
    <title>location</title>
    <desc>Created with Sketch.</desc>
    <defs></defs>
    <g id="Page-1" stroke="none" stroke-width="1" fill="none" fill-rule="evenodd" sketch:type="MSPage">
        <g id="location" sketch:type="MSLayerGroup">
            <g id="Page-1" sketch:type="MSShapeGroup">
                <g id="Shopping-Cart-Copy-5-+-Shape-Copy-2">
                    <g id="Shopping-Cart-Copy-5" fill="#DA251C">
                        <path d="M0,8.31683307 C0,3.723573 3.71741298,0 8.34809557,0 L19.0478238,0 L30,0 L30,21.683167 C30,26.276427 26.261137,30 21.683167,30 L0,30 L0,8.31683307 L0,8.31683307 Z" id="Rectangle-16-Copy" transform="translate(15.000000, 15.000000) scale(-1, 1) translate(-15.000000, -15.000000) "></path>
                    </g>
                    <path d="M21.011906,17.8453075 L16.9486495,17.8453075 L19.0819985,13.3585348 L19.4341892,12.617003 C19.4765148,12.5014212 19.5146602,12.3837121 19.54758,12.2638757 C19.6512167,11.8862848 19.7106118,11.489903 19.7106118,11.078453 C19.7106118,8.64201667 17.7693827,6.66666667 15.3752872,6.66666667 C12.9811916,6.66666667 11.0401367,8.64201667 11.0401367,11.078453 C11.0401367,11.4897257 11.099706,11.8861076 11.2033427,12.2638757 C11.2360885,12.3837121 11.2742338,12.5014212 11.3165593,12.617003 L11.6689242,13.3583576 L13.8017507,17.8453075 L9.73884253,17.8453075 L6.66666667,24.3939393 L24.0844303,24.3939393 L21.011906,17.8453075 L21.011906,17.8453075 L21.011906,17.8453075 Z M15.3754614,9.50001667 C16.2319014,9.50001667 16.9268772,10.2069803 16.9268772,11.078453 C16.9268772,11.9506349 16.2320755,12.6570667 15.3754614,12.6570667 C14.5188472,12.6570667 13.824394,11.9502803 13.824394,11.078453 C13.824394,10.2069803 14.5188472,9.50001667 15.3754614,9.50001667 L15.3754614,9.50001667 L15.3754614,9.50001667 Z M12.9146551,19.4641622 C13.64377,19.5650303 14.0719029,20.082844 14.596357,20.7258122 C15.4298053,21.7470803 16.4670435,23.0184803 19.2345797,23.0184803 C20.9270807,23.0184803 21.963448,22.705594 22.3220833,22.0895712 L23.1098967,23.7685212 L12.9146551,23.7685212 L12.9146551,19.4641622 L12.9146551,19.4641622 L12.9146551,19.4641622 Z M21.2872837,19.8837667 C20.2094617,19.8864258 19.0079723,19.8763212 18.418201,19.277494 C18.2154562,19.0711485 18.1024137,18.8031122 18.0670553,18.4703712 L20.6248795,18.4703712 L21.2872837,19.8837667 L21.2872837,19.8837667 L21.2872837,19.8837667 Z M15.3754614,21.1546348 L16.6516737,18.4705485 L17.760848,18.4705485 C17.8002125,18.8880258 17.9432138,19.2363667 18.2013477,19.4990848 C18.851385,20.1594258 20.0450363,20.196653 21.1437598,20.196653 L21.3567812,20.196653 L21.434291,20.1962985 L22.1416335,21.7038258 C22.1317053,21.7589575 22.1172483,21.8137348 22.0928632,21.867094 C21.9199032,22.250003 21.2836258,22.7059485 19.2351022,22.7059485 C16.6119608,22.7059485 15.6668635,21.548003 14.8334151,20.5260258 C14.2995554,19.872244 13.7885131,19.2574622 12.9153518,19.1523393 L12.9153518,18.4707258 L14.0999458,18.4707258 L15.3754614,21.1546348 L15.3754614,21.1546348 L15.3754614,21.1546348 Z M10.1262175,18.4705485 L12.6075769,18.4705485 L12.6075769,19.1315985 C11.2663957,19.1424122 10.6605998,19.6072212 10.1737684,19.9828622 C9.85327838,20.229803 9.5895708,20.4310075 9.18233942,20.4831258 L10.1262175,18.4705485 L10.1262175,18.4705485 L10.1262175,18.4705485 Z M9.03028082,20.8064712 C9.63085132,20.788744 9.98617725,20.5191122 10.3590953,20.2321075 C10.8325148,19.8669258 11.3714258,19.4554758 12.6075769,19.4453712 L12.6075769,23.7685212 L7.64085193,23.7685212 L9.03028082,20.8064712 L9.03028082,20.8064712 L9.03028082,20.8064712 Z" id="Shape-Copy-2" fill="#FFFFFF"></path>
                </g>
            </g>
        </g>
    </g>
</svg>