<?xml version="1.0" encoding="UTF-8" standalone="no"?>
<svg width="29px" height="39px" viewBox="0 0 29 39" version="1.1" xmlns="http://www.w3.org/2000/svg" xmlns:xlink="http://www.w3.org/1999/xlink" xmlns:sketch="http://www.bohemiancoding.com/sketch/ns">
    <!-- Generator: Sketch 3.4.2 (15855) - http://www.bohemiancoding.com/sketch -->
    <title>Slice 1 + chair7</title>
    <desc>Created with Sketch.</desc>
    <defs></defs>
    <g id="Page-1" stroke="none" stroke-width="1" fill="none" fill-rule="evenodd" sketch:type="MSPage">
        <g id="Slice-1-+-chair7" sketch:type="MSLayerGroup" transform="translate(-6.000000, -1.000000)" fill="#DA251C">
            <g id="chair7" transform="translate(6.000000, 1.000000)" sketch:type="MSShapeGroup">
                <path d="M28.1432917,14.5457813 C28.1432917,6.5251875 21.8309583,0 14.07225,0 C6.31354167,0 0,6.5251875 0,14.5457813 C0,19.3951875 2.30791667,23.6961563 5.84954167,26.3408438 C6.02475,27.4669688 6.30991667,28.7417812 6.50566667,29.8459688 C6.80654167,31.5424688 7.42641667,31.07325 8.34595833,31.0939688 C9.05525,31.1134688 12.122,31.1878125 13.4910417,31.2207188 L13.4910417,32.9038125 L13.1128333,32.9038125 L13.1128333,37.4265938 L9.92283333,37.4265938 L9.92283333,38.712375 L18.3050417,38.712375 L18.3050417,37.4265938 L15.1657917,37.4265938 L15.1657917,35.2572187 C15.5790417,35.3120625 16.3257917,35.3937187 17.099125,35.3937187 C17.69,35.3925 18.299,35.3449687 18.7859583,35.2011562 C19.6100417,34.958625 19.8130417,34.4979375 19.72725,34.1481562 C19.6027917,33.6350625 18.90075,33.3535312 18.13225,33.505875 C17.1015417,33.7094062 15.4920417,33.544875 15.1657917,33.5083125 L15.1657917,32.9050312 L14.6715833,32.9050312 L14.6715833,31.2170625 C16.113125,31.1817187 18.9490833,31.11225 19.6281667,31.0939687 C20.5489167,31.0720312 21.166375,31.54125 21.4684583,29.8459687 C21.6545417,28.7880937 21.927625,27.5717812 22.101625,26.4785625 C25.752,23.8472813 28.1432917,19.4792813 28.1432917,14.5457813 L28.1432917,14.5457813 Z M18.2434167,34.0640625 C18.7871667,33.9555937 19.14725,34.1530312 19.1786667,34.2834375 C19.1931667,34.3480312 19.078375,34.519875 18.6264583,34.6539375 C17.577625,34.9635 15.805,34.7672812 15.167,34.6795312 L15.167,34.0835625 C15.62375,34.1323125 17.1776667,34.276125 18.2434167,34.0640625 L18.2434167,34.0640625 Z M3.20208333,14.5457813 C3.20208333,8.341125 8.07770833,3.29428125 14.0710417,3.29428125 C20.064375,3.29428125 24.94,8.34234375 24.94,14.5457813 C24.94,17.9521875 23.46825,21.0100312 21.14825,23.073375 C21.0201667,23.0648438 20.8824167,23.0599688 20.724125,23.0599688 C19.30675,23.0599688 19.2717083,22.8820313 19.2717083,21.2574375 C19.2717083,19.6340625 18.56,18.9893438 16.9710417,18.9893438 C15.692625,18.9893438 14.431125,19.0588125 13.98525,19.0868437 C13.5405833,19.0588125 12.277875,18.9893438 10.9994583,18.9893438 C9.4105,18.9893438 8.69879167,19.6340625 8.69879167,21.2574375 C8.69879167,22.8820313 8.66375,23.0599688 7.246375,23.0599688 C7.15454167,23.0599688 7.06754167,23.0624062 6.98416667,23.0648438 C4.67020833,20.9990625 3.20208333,17.9485312 3.20208333,14.5457813 L3.20208333,14.5457813 Z M18.33525,29.2378125 L14.155625,29.2378125 L13.8185,29.2378125 L9.638875,29.2378125 C8.294,29.2378125 9.638875,27.3816562 10.0642083,27.3816562 C10.4097917,27.3816562 12.901375,27.4060312 13.8185,27.4133437 L13.8185,27.417 C13.8185,27.417 13.880125,27.4157812 13.9876667,27.4145625 C14.0952083,27.4157813 14.1568333,27.417 14.1568333,27.417 L14.1568333,27.4133437 C15.0751667,27.4048125 17.5655417,27.3816562 17.911125,27.3816562 C18.33525,27.3816562 19.6813333,29.2378125 18.33525,29.2378125 L18.33525,29.2378125 Z M22.2369583,25.4828438 C22.2659583,25.20375 22.2816667,24.9405 22.2816667,24.701625 C22.2816667,23.9520938 22.239375,23.5279688 21.9517917,23.2988438 C24.2234583,21.113625 25.6505,17.9972813 25.6505,14.5445625 C25.6505,7.94625 20.455875,2.578875 14.07225,2.578875 C7.688625,2.578875 2.494,7.94625 2.494,14.5445625 C2.494,17.9631563 3.89204167,21.05025 6.12504167,23.2330313 C5.74683333,23.4402188 5.69245833,23.8704375 5.69245833,24.701625 C5.69245833,24.896625 5.70454167,25.1086875 5.723875,25.3329375 C2.66920833,22.7967188 0.709291667,18.9040313 0.709291667,14.5445625 C0.709291667,6.917625 6.70383333,0.71296875 14.0734583,0.71296875 C21.4430833,0.71296875 27.437625,6.917625 27.437625,14.5445625 C27.4352083,18.9905625 25.3991667,22.9502812 22.2369583,25.4828438 L22.2369583,25.4828438 Z" id="Shape"></path>
            </g>
        </g>
    </g>
</svg>