<?xml version="1.0" encoding="UTF-8" standalone="no"?>
<svg width="30px" height="30px" viewBox="0 0 30 30" version="1.1" xmlns="http://www.w3.org/2000/svg" xmlns:xlink="http://www.w3.org/1999/xlink" xmlns:sketch="http://www.bohemiancoding.com/sketch/ns">
    <!-- Generator: Sketch 3.4.2 (15855) - http://www.bohemiancoding.com/sketch -->
    <title>location</title>
    <desc>Created with Sketch.</desc>
    <defs></defs>
    <g id="Page-1" stroke="none" stroke-width="1" fill="none" fill-rule="evenodd" sketch:type="MSPage">
        <g id="location" sketch:type="MSLayerGroup">
            <g id="Page-1" sketch:type="MSShapeGroup">
                <g id="location" fill="#DA251C">
                    <g id="Page-1">
                        <g id="Shopping-Cart-Copy-5">
                            <path d="M0,8.31683307 C0,3.723573 3.71741298,0 8.34809557,0 L19.0478238,0 L30,0 L30,21.683167 C30,26.276427 26.261137,30 21.683167,30 L0,30 L0,8.31683307 L0,8.31683307 L0,8.31683307 Z" id="Rectangle-16-Copy" transform="translate(15.000000, 15.000000) scale(-1, 1) translate(-15.000000, -15.000000) "></path>
                        </g>
                    </g>
                </g>
                <path d="M21.875,5 C23.600625,5 25,6.399375 25,8.125 C25,8.82875 24.7675,9.4775 24.375,10 L23.125,11.25 L18.75,6.875 L20,5.625 C20.5225,5.2325 21.17125,5 21.875,5 L21.875,5 Z M6.25,19.375 L5,25 L10.625,23.75 L22.1875,12.1875 L17.8125,7.8125 L6.25,19.375 L6.25,19.375 Z M18.97625,12.10125 L10.22625,20.85125 L9.14875,19.77375 L17.89875,11.02375 L18.97625,12.10125 L18.97625,12.10125 Z" id="Shape" fill="#FFFFFF"></path>
            </g>
        </g>
    </g>
</svg>