<?xml version="1.0" encoding="UTF-8" standalone="no"?>
<svg width="40px" height="40px" viewBox="0 0 40 40" version="1.1" xmlns="http://www.w3.org/2000/svg" xmlns:xlink="http://www.w3.org/1999/xlink" xmlns:sketch="http://www.bohemiancoding.com/sketch/ns">
    <!-- Generator: Sketch 3.4.2 (15855) - http://www.bohemiancoding.com/sketch -->
    <title>products2 copy</title>
    <desc>Created with Sketch.</desc>
    <defs></defs>
    <g id="Page-1" stroke="none" stroke-width="1" fill="none" fill-rule="evenodd" sketch:type="MSPage">
        <g id="products2-copy" sketch:type="MSLayerGroup" fill="#DA251C">
            <path d="M17.2866667,38.1811613 L30.9266667,38.1811613 L30.9266667,39.9786667 L17.2866667,39.9786667 L17.2866667,38.1811613 L17.2866667,38.1811613 Z M29.6083333,8.32825806 L30.925,8.32825806 L30.925,37.5893333 L17.285,37.5893333 L17.285,8.32688172 L18.9133333,8.32688172 L18.9133333,5.91965591 L19.72,5.91965591 L19.72,5.13376344 L22.2983333,5.13376344 L22.2983333,1.90623656 L26.5883333,1.90898925 L26.5883333,2.54348387 L26.9366667,2.54348387 L26.9366667,4.34924731 L26.5883333,4.34924731 L26.5883333,5.13376344 L28.8566667,5.13376344 L28.8566667,5.92103226 L29.605,5.92103226 L29.6066667,5.92103226 L29.6066667,8.32825806 L29.6083333,8.32825806 Z M20.695,10.3831398 L18.9683333,10.3831398 L18.9683333,35.8221075 L20.695,35.8221075 L20.695,10.3831398 L20.695,10.3831398 Z M0,12.460043 L12.86,12.460043 L12.86,39.9786667 L0,39.9786667 L0,12.460043 L0,12.460043 Z M0.971666667,21.8769892 L11.89,21.8769892 L11.89,13.2610753 L0.971666667,13.2610753 L0.971666667,21.8769892 L0.971666667,21.8769892 Z M10.515,6.31466667 L2.42666667,6.31466667 L2.42666667,11.2584946 L10.5166667,11.2584946 L10.5166667,6.31466667 L10.515,6.31466667 Z M39.5616667,0.406021505 L39.425,0.00825806452 L27.4916667,2.80498925 L27.6283333,3.20275269 L39.5616667,0.406021505 L39.5616667,0.406021505 Z M27.84,3.80146237 L27.7033333,4.19922581 L39.6366667,6.99595699 L39.7733333,6.59819355 L27.84,3.80146237 L27.84,3.80146237 Z M27.7816667,3.74778495 L38.9916667,3.65419355 L38.9866667,3.23991398 L27.7766667,3.33488172 L27.7816667,3.74778495 L27.7816667,3.74778495 Z" id="Shape" sketch:type="MSShapeGroup"></path>
        </g>
    </g>
</svg>