<?xml version="1.0" encoding="UTF-8" standalone="no"?>
<svg width="33px" height="22px" viewBox="0 0 33 22" version="1.1" xmlns="http://www.w3.org/2000/svg" xmlns:xlink="http://www.w3.org/1999/xlink" xmlns:sketch="http://www.bohemiancoding.com/sketch/ns">
    <!-- Generator: Sketch 3.4.2 (15855) - http://www.bohemiancoding.com/sketch -->
    <title>Shape Copy 3</title>
    <desc>Created with Sketch.</desc>
    <defs></defs>
    <g id="Page-1" stroke="none" stroke-width="1" fill="none" fill-rule="evenodd" sketch:type="MSPage">
        <path d="M7.031,8 C10.897,8 14.031,11.134 14.031,15 C14.031,18.866 10.897,22 7.031,22 C3.165,22 0.031,18.866 0.031,15 L8.8817842e-16,14 C8.8817842e-16,6.268 6.268,0 14,0 L14,4 C11.329,4 8.818,5.04 6.929,6.929 C6.565,7.293 6.234,7.68 5.934,8.086 C6.291,8.03 6.658,8 7.031,8 L7.031,8 Z M25.031,8 C28.897,8 32.031,11.134 32.031,15 C32.031,18.866 28.897,22 25.031,22 C21.165,22 18.031,18.866 18.031,15 L18,14 C18,6.268 24.268,0 32,0 L32,4 C29.329,4 26.818,5.04 24.929,6.929 C24.565,7.293 24.234,7.68 23.934,8.086 C24.292,8.03 24.658,8 25.031,8 L25.031,8 Z" id="Shape-Copy-3" fill="#DA251C" sketch:type="MSShapeGroup"></path>
    </g>
</svg>