<?xml version="1.0" encoding="UTF-8" standalone="no"?>
<svg width="33px" height="22px" viewBox="0 0 33 22" version="1.1" xmlns="http://www.w3.org/2000/svg" xmlns:xlink="http://www.w3.org/1999/xlink" xmlns:sketch="http://www.bohemiancoding.com/sketch/ns">
    <!-- Generator: Sketch 3.4.2 (15855) - http://www.bohemiancoding.com/sketch -->
    <title>Shape Copy 3</title>
    <desc>Created with Sketch.</desc>
    <defs></defs>
    <g id="Page-1" stroke="none" stroke-width="1" fill="none" fill-rule="evenodd" sketch:type="MSPage">
        <path d="M25,14 C21.134,14 18,10.866 18,7 C18,3.134 21.134,0 25,0 C28.866,0 32,3.134 32,7 L32.031,8 C32.031,15.732 25.763,22 18.031,22 L18.031,18 C20.702,18 23.213,16.96 25.102,15.071 C25.466,14.707 25.797,14.321 26.097,13.914 C25.74,13.97 25.373,14 25,14 L25,14 Z M7,14 C3.134,14 0,10.866 0,7 C0,3.134 3.134,0 7,0 C10.866,0 14,3.134 14,7 L14.031,8 C14.031,15.732 7.763,22 0.031,22 L0.031,18 C2.702,18 5.213,16.96 7.102,15.071 C7.466,14.707 7.797,14.321 8.097,13.914 C7.74,13.97 7.373,14 7,14 L7,14 Z" id="Shape-Copy-3" fill="#DA251C" sketch:type="MSShapeGroup"></path>
    </g>
</svg>