<?xml version="1.0" encoding="UTF-8" standalone="no"?>
<svg width="40px" height="40px" viewBox="0 0 40 40" version="1.1" xmlns="http://www.w3.org/2000/svg" xmlns:xlink="http://www.w3.org/1999/xlink" xmlns:sketch="http://www.bohemiancoding.com/sketch/ns">
    <!-- Generator: Sketch 3.4.2 (15855) - http://www.bohemiancoding.com/sketch -->
    <title>scissors33</title>
    <desc>Created with Sketch.</desc>
    <defs></defs>
    <g id="Page-1" stroke="none" stroke-width="1" fill="none" fill-rule="evenodd" sketch:type="MSPage">
        <g id="scissors33" sketch:type="MSLayerGroup" fill="#DA251C">
            <g id="Page-1" sketch:type="MSShapeGroup">
                <g id="scissors33">
                    <path d="M35.51875,26.1412737 C35.31,25.42134 34.95625,24.7450786 34.44625,24.1773366 C33.0675,22.6540943 30.96875,22.2544251 29.29,23.1239041 C29.27625,23.1252275 29.26875,23.1199338 29.25375,23.1239041 C27.355,24.0264682 24.385,22.1287014 22.8675,21.6072788 C22.035,21.3227461 21.27625,20.7033913 20.54625,20.154177 C21.69875,20.2335814 22.9125,20.8886683 23.47625,21.1996691 C23.58625,21.2605459 23.6825,21.2049628 23.6175,21.1242349 C23.1,20.4837055 22.67375,19.888172 22.4175,19.3257237 L23.8775,20.7325062 L24.07625,20.5009098 L22.20375,18.697105 C22.17125,18.540943 22.15875,18.3874276 22.16375,18.2352357 L24.27375,20.2693134 L24.4725,20.0377171 L22.2175,17.8660049 C22.2425,17.7680728 22.2775,17.6701406 22.3225,17.5735318 L24.6575,19.8220016 L24.8575,19.5904053 L22.4775,17.2995865 C22.53375,17.2175352 22.59375,17.1381307 22.66375,17.0560794 L25.05625,19.3601323 L25.255,19.128536 L22.86125,16.8244831 C22.91875,16.7569892 22.98625,16.6802316 23.06125,16.5928867 L25.455,18.8969396 L25.65375,18.6666667 L23.26125,16.3612904 C23.31875,16.2951199 23.3825,16.2210091 23.44625,16.1455749 L25.83875,18.4509512 L26.0375,18.2193549 L23.645,15.9153019 C23.6975,15.8531017 23.7525,15.7895782 23.80875,15.7220844 L26.20125,18.0274607 L26.4,17.7958643 L24.0075,15.4918114 C24.0725,15.4150537 24.13875,15.3382961 24.20625,15.2602151 L26.59875,17.5655914 L26.7975,17.3339951 L24.405,15.0286187 C24.46625,14.9584781 24.5275,14.8870141 24.59,14.8129032 L26.9825,17.1169562 L27.18125,16.8853598 L24.7875,14.5839536 C24.8525,14.507196 24.9175,14.4304384 24.985,14.3523573 L27.3775,16.6564103 L27.57625,16.4261373 L25.18375,14.1220844 C25.24875,14.0453267 25.315,13.968569 25.3825,13.890488 L27.77625,16.1958643 L27.97375,15.964268 L25.5825,13.6588917 C25.64375,13.5887511 25.705,13.517287 25.7675,13.4444996 L28.16,15.7485525 L28.3575,15.5169562 L25.965,13.2129032 C26.0125,13.1573201 26.0625,13.1004135 26.10875,13.0461538 L28.50125,15.3502068 L28.7,15.1186105 L26.3075,12.8145574 C26.37375,12.7364764 26.44,12.6597188 26.50625,12.5829611 L28.89875,14.8870141 L29.09875,14.6554177 L26.70625,12.3513647 C26.7675,12.2799007 26.83,12.2084367 26.89125,12.1356493 L29.28375,14.4410256 L29.4825,14.2094292 L27.09,11.9053763 C27.15625,11.8286187 27.2225,11.751861 27.28875,11.67378 L29.68125,13.9791563 L29.87875,13.74756 L27.4875,11.4395368 C27.555,11.3627792 27.62,11.2846981 27.6875,11.2079404 L30.08,13.5133168 L30.27875,13.2817204 L27.88625,10.9763441 C27.94875,10.9048801 28.01,10.8320926 28.07125,10.7606286 L30.46375,13.0646815 L30.66375,12.8330852 L28.27,10.5290323 C28.3225,10.4668321 28.375,10.4059554 28.42875,10.3450786 L30.82125,12.6491315 L31.02,12.4175352 L28.6275,10.1134822 C28.68875,10.0433416 28.75,9.97055417 28.81125,9.89909015 L31.20375,12.2031431 L31.4025,11.9715468 L29.01,9.66749379 C29.065,9.60397023 29.12,9.53912324 29.175,9.47559967 L31.5675,11.780976 L31.76625,11.5493797 L29.37375,9.24400331 C29.44,9.16724566 29.50625,9.08916459 29.5725,9.01373036 L31.965,11.3177833 L32.16375,11.086187 L29.77125,8.782134 C29.83375,8.70934656 29.89625,8.63655914 29.95625,8.56641852 L32.34875,10.8704715 L32.5475,10.6388751 L30.155,8.33482216 C30.2225,8.2554177 30.28875,8.17998346 30.35375,8.10322581 L32.74625,10.4086022 L32.945,10.1770058 L30.5525,7.87427626 C30.62,7.79487179 30.68625,7.71679074 30.75125,7.6426799 L33.145,9.94673284 L33.3425,9.71513647 L30.95125,7.41108354 C31.015,7.33697271 31.0775,7.26550869 31.13625,7.19536807 L33.52875,9.49942101 L33.7275,9.26914805 L31.335,6.96377171 C31.38625,6.90554177 31.43375,6.85128205 31.48,6.79702233 L33.8725,9.10107527 L34.07125,8.87080232 L31.6775,6.56410256 C31.75125,6.47940446 31.81625,6.40264682 31.87625,6.33250621 L34.26875,8.63655914 L34.4675,8.40496278 L32.075,6.10223325 C32.1775,5.98180314 32.23625,5.91430934 32.23625,5.91430934 C32.245,5.90504549 32.2525,5.89710505 32.26,5.88651778 L34.6525,8.19189412 L34.85125,7.96029776 L32.45875,5.65624483 C32.5275,5.57684036 32.59375,5.50008272 32.65875,5.42464847 L35.05125,7.73002481 L35.25,7.49975186 L32.8575,5.19437552 C32.9275,5.11232424 32.99375,5.03424318 33.0575,4.96410256 L35.45,7.2681555 L35.64875,7.03655914 L33.25625,4.73250621 C33.32875,4.64913152 33.38875,4.5789909 33.44125,4.51679074 L35.83375,6.82084367 L36.0325,6.59057072 L33.6425,4.28784119 C33.69625,4.2216708 33.75,4.16344086 33.80625,4.10918114 L36.18875,6.40397023 L36.38875,6.17237387 L34.0475,3.91861042 C34.14,3.85641026 34.235,3.80744416 34.33125,3.76906534 L36.5875,5.94210091 L36.78625,5.71182796 L34.675,3.67775021 C34.81875,3.65789909 34.96375,3.65657568 35.11375,3.6764268 L36.98625,5.4802316 L37.185,5.24863523 L35.725,3.84185277 C36.265,4.05227461 36.84875,4.43341605 37.4825,4.90322581 C37.56875,4.96674938 37.655,4.89396195 37.5875,4.78411911 C36.3,2.68651778 33.555,2.05260546 32.48625,3.29528536 C32.2575,3.56129032 31.76875,4.12903226 31.14125,4.85955335 C31.14125,4.85955335 27.235,9.40545906 24.38875,12.7179487 C24.27125,12.8542597 24.15375,12.9918942 24.04,13.1242349 C22.8675,14.4873449 21.925,15.5844499 21.5975,15.9655914 L18.8325,19.1841191 C18.81625,19.1801489 18.8,19.170885 18.78375,19.1669148 C18.705,19.1483871 18.5625,19.0901571 18.36375,19.0001654 L9.905,0 L14.54125,16.6034739 C14.54125,16.6034739 14.58125,16.7583126 14.6475,17.0282878 C8.9375,13.8521092 0,7.78296113 0,7.78296113 C0,7.78296113 15.1775,21.8163771 15.7225,22.286187 C15.745,22.4224979 15.7775,22.5614558 15.80875,22.6990902 L5.2975,34.9300248 L5.6325,35.2542597 L16.10625,23.7485525 C17.04375,26.5343258 18.93625,29.4511166 16.9525,30.9399504 C16.9475,30.9492143 16.9525,30.9571547 16.94875,30.9677419 C15.16125,32.2977668 14.77125,35.1086848 16.11125,37.3425972 C17.4875,39.6360629 20.16125,40.4578991 22.0725,39.1728702 C23.24625,38.3827957 23.83,36.7841191 24.29,35.2463193 C23.8975,34.0102564 23.575,33.5655914 23.04375,32.681555 C22.6975,32.1045492 22.2675,31.6228288 21.79,31.2403639 C20.7525,30.1961952 17.71625,22.3986766 18.02625,21.6708024 C21.7275,21.6125724 26.45625,24.6603805 26.995,27.4937965 C27,27.4937965 27.00875,27.4858561 27.01375,27.4845327 C27.105,28.5789909 27.5275,29.6165426 28.2675,30.4344086 C29.75625,32.0820513 32.09625,32.4340777 33.82625,31.2708024 C34.0525,31.1186105 34.26625,30.9412737 34.46125,30.7440861 C35.16625,30.0307692 35.5775,29.0898263 35.6875,28.0628618 C36.09,27.9119933 36.67375,27.7611249 37.22625,27.8921423 C39.27,28.4572374 39.82125,26.6759306 39.8625,26.1187759 C39.905,25.5920596 36.95125,27.1510339 35.51875,26.1412737 L35.51875,26.1412737 L35.51875,26.1412737 Z M15.59,20.3606286 C15.32625,19.9225806 15.45,19.3389578 15.86375,19.0597188 C16.28,18.7818032 16.82875,18.9114971 17.09125,19.3508685 C17.355,19.7902399 17.2325,20.3725393 16.8175,20.6517784 C16.40375,20.9296939 15.8525,20.8 15.59,20.3606286 L15.59,20.3606286 L15.59,20.3606286 Z M19.21375,31.7432589 C19.3175,31.7551695 19.42125,31.7644334 19.52375,31.7750207 C20.405,31.9232424 21.28375,32.5200993 21.86,33.4782465 C22.82125,35.0808933 22.57875,37.0712986 21.32,37.9169562 C20.06375,38.7626137 18.2575,38.1485525 17.2975,36.5472291 C16.3375,34.9459057 16.57875,32.9528536 17.83625,32.1085195 C18.2525,31.8266335 18.72875,31.7220844 19.21375,31.7432589 L19.21375,31.7432589 L19.21375,31.7432589 Z M33.49375,29.6681555 C33.36375,29.7978494 33.225,29.9156327 33.07625,30.0162118 C31.90625,30.8009925 30.3125,30.5442515 29.28375,29.4047973 C28.70875,28.7682383 28.38875,27.9477254 28.38125,27.0980976 C28.375,26.2630273 28.675,25.4980976 29.2225,24.9435897 C29.35125,24.8138958 29.49125,24.6961125 29.64,24.5968569 C30.8075,23.8120761 32.40125,24.0688172 33.43,25.2056245 C34.00625,25.8421836 34.325,26.6640199 34.3325,27.5136477 C34.33875,28.3473946 34.03875,29.1149711 33.49375,29.6681555 L33.49375,29.6681555 L33.49375,29.6681555 Z" id="Shape"></path>
                </g>
            </g>
        </g>
    </g>
</svg>