<?xml version="1.0" encoding="UTF-8" standalone="no"?>
<svg width="30px" height="30px" viewBox="0 0 30 30" version="1.1" xmlns="http://www.w3.org/2000/svg" xmlns:xlink="http://www.w3.org/1999/xlink" xmlns:sketch="http://www.bohemiancoding.com/sketch/ns">
    <!-- Generator: Sketch 3.4.2 (15855) - http://www.bohemiancoding.com/sketch -->
    <title>Search icon</title>
    <desc>Created with Sketch.</desc>
    <defs></defs>
    <g id="Page-1" stroke="none" stroke-width="1" fill="none" fill-rule="evenodd" sketch:type="MSPage">
        <g id="Search-icon" sketch:type="MSLayerGroup">
            <g id="noun_101791_cc" sketch:type="MSShapeGroup">
                <path d="M0,5.00443555 C0,2.24056212 2.23055644,0 4.99018609,0 L19.0478239,0 L30,0 L30,24.9955644 C30,27.7594379 27.7696334,30 24.9955644,30 L0,30 L0,5.00443555 Z" id="Rectangle-16" fill="#DA251C" transform="translate(15.000000, 15.000000) scale(-1, 1) translate(-15.000000, -15.000000) "></path>
                <path d="M19.5576035,14.9754801 C20.4334901,11.5659509 18.3746045,8.07865175 14.9684507,7.2019528 C11.5616476,6.32503723 8.07779589,8.38583216 7.20169278,11.7953614 C6.3258061,15.2051072 8.38447526,18.6919731 11.7910619,19.5691053 C15.1972158,20.4458043 18.6815003,18.385226 19.5576035,14.9754801 L19.5576035,14.9754801 Z M12.2224042,17.8897946 C9.7408335,17.2511713 8.24141593,14.7105424 8.87944754,12.226887 C9.51769558,9.74323161 12.0555377,8.2422069 14.5366756,8.8808302 C17.0182463,9.5194535 18.5178803,12.0598658 17.8796323,14.5435212 C17.2413842,17.0271766 14.7039749,18.5284179 12.2224042,17.8897946 L12.2224042,17.8897946 Z M22.7365072,22.3176984 C22.7369401,22.3174818 22.7371565,22.3172651 22.7373729,22.3172651 C22.7345594,22.3211645 22.7308801,22.3252804 22.7278501,22.3289631 C22.7252529,22.3326458 22.7228722,22.3356786 22.7202751,22.3393613 C22.7198422,22.339578 22.7196258,22.339578 22.7191929,22.3400112 C22.6865122,22.379871 22.6449579,22.4290459 22.6122772,22.4624068 L22.4802557,22.5971502 C22.0973935,22.9879496 21.5954955,23.1166274 21.3587225,22.8844008 L17.5712215,19.1689909 C17.7757465,18.9993701 18.0460659,18.7519794 18.1692138,18.6386823 L18.1687809,18.6384657 C18.5113874,18.3282524 18.6310725,18.1471503 18.6975161,18.0841112 C18.8299704,17.9588994 19.0243233,17.6887626 19.0890355,17.619008 L22.8765365,21.3342012 C23.0847409,21.5389159 23.0165659,21.9546276 22.7365072,22.3176984 L22.7365072,22.3176984 Z M11.933472,10.7819693 C10.9699317,11.4351068 10.2622101,12.6633951 10.5556873,13.8284277 C10.6628195,14.2528046 10.0338779,14.4479877 9.92696213,14.0244773 C9.54734631,12.5180369 10.4121951,11.0094301 11.6099112,10.1972867 C11.9678841,9.95466185 12.2901464,10.540211 11.933472,10.7819693 L11.933472,10.7819693 Z" id="Shape" fill="#FFFFFF"></path>
            </g>
        </g>
    </g>
</svg>