<?xml version="1.0" encoding="UTF-8" standalone="no"?>
<svg width="30px" height="30px" viewBox="0 0 30 30" version="1.1" xmlns="http://www.w3.org/2000/svg" xmlns:xlink="http://www.w3.org/1999/xlink" xmlns:sketch="http://www.bohemiancoding.com/sketch/ns">
    <!-- Generator: Sketch 3.4.2 (15855) - http://www.bohemiancoding.com/sketch -->
    <title>Shopping Cart</title>
    <desc>Created with Sketch.</desc>
    <defs></defs>
    <g id="Page-1" stroke="none" stroke-width="1" fill="none" fill-rule="evenodd" sketch:type="MSPage">
        <g id="Shopping-Cart" sketch:type="MSLayerGroup">
            <path d="M0,5.00443555 C0,2.24056212 2.23055644,0 4.99018609,0 L19.0478239,0 L30,0 L30,24.9955644 C30,27.7594379 27.7696334,30 24.9955644,30 L0,30 L0,5.00443555 Z" id="Rectangle-16-Copy" fill="#DA251C" sketch:type="MSShapeGroup" transform="translate(15.000000, 15.000000) scale(-1, 1) translate(-15.000000, -15.000000) "></path>
            <g id="cart" transform="translate(8.000000, 8.000000)" sketch:type="MSShapeGroup">
                <path d="M5.625,13.5 C5.625,14.3285 4.99546875,15 4.21875,15 C3.44203125,15 2.8125,14.3285 2.8125,13.5 C2.8125,12.6715 3.44203125,12 4.21875,12 C4.99546875,12 5.625,12.6715 5.625,13.5 L5.625,13.5 Z" id="Shape" fill="#FFFFFF"></path>
                <path d="M15,13.5 C15,14.3285 14.3704688,15 13.59375,15 C12.8170312,15 12.1875,14.3285 12.1875,13.5 C12.1875,12.6715 12.8170312,12 13.59375,12 C14.3704688,12 15,12.6715 15,13.5 L15,13.5 Z" id="Shape" fill="#FFFFFF"></path>
                <path d="M15,7 L15,1 L3.75,1 C3.75,0.4475 3.33046875,0 2.8125,0 L0,0 L0,1 L1.875,1 L2.5790625,7.4385 C2.15015625,7.805 1.875,8.368 1.875,9 C1.875,10.1045 2.71453125,11 3.75,11 L15,11 L15,10 L3.75,10 C3.23203125,10 2.8125,9.5525 2.8125,9 L2.8125,8.99 L15,7 L15,7 Z" id="Shape" stroke="#FFFFFF"></path>
            </g>
        </g>
    </g>
</svg>