<?xml version="1.0" encoding="UTF-8" standalone="no"?>
<svg width="38px" height="40px" viewBox="0 0 38 40" version="1.1" xmlns="http://www.w3.org/2000/svg" xmlns:xlink="http://www.w3.org/1999/xlink" xmlns:sketch="http://www.bohemiancoding.com/sketch/ns">
    <!-- Generator: Sketch 3.4.2 (15855) - http://www.bohemiancoding.com/sketch -->
    <title>short24</title>
    <desc>Created with Sketch.</desc>
    <defs></defs>
    <g id="Page-1" stroke="none" stroke-width="1" fill="none" fill-rule="evenodd" sketch:type="MSPage">
        <g id="short24" sketch:type="MSLayerGroup" transform="translate(-1.000000, 0.000000)" fill="#DA251C">
            <path d="M9.7369697,16.8975 C8.54181818,18.2675 10.8884848,26.1225 10.8884848,26.1225 C10.8884848,26.1225 9.00606061,21.19125 8.32,21.51125 C6.17212121,26.58 8.60727273,37.19875 8.93939394,37.45 C9.27151515,37.70125 7.89939394,39.55125 6.99151515,38.6375 C8.05454545,37.5175 6.99151515,36.35375 6.99151515,36.35375 C6.99151515,36.35375 6.74787879,36.605 6.19393939,36.81 C6.57090909,35.9425 6.72484848,33.705 6.72484848,33.705 L6.72484848,31.42125 C6.72484848,31.42125 6.23757576,33.5225 5.21939394,33.79625 C5.79515152,32.88375 6.28121212,29.7775 6.28121212,29.7775 C6.28121212,29.7775 5.75030303,30.6675 5.21939394,30.69 C5.52848485,30.11875 5.21939394,28.315 5.21939394,28.315 C5.21939394,28.315 3.47030303,30.7125 2.47272727,30.23375 C3.42545455,29.7775 3.80121212,27.76625 3.80121212,27.76625 C3.80121212,27.76625 2.14060606,28.8175 1.76363636,27.76625 C2.98181818,27.72125 3.62424242,26.39625 3.62424242,26.39625 C3.62424242,26.39625 1.74181818,27.35625 1.76363636,26.76125 C2.73818182,26.19 3.53454545,24.47875 3.53454545,24.47875 C3.53454545,24.47875 2.49454545,25.68875 1.96242424,25.39125 C2.64848485,24.79625 3.71151515,23.4725 3.71151515,23.4725 C3.71151515,23.4725 1.96242424,24.52375 1.76363636,23.56375 C3.11393939,23.13 3.53454545,20.64125 3.53454545,20.64125 C3.53454545,20.64125 2.20606061,22.19375 1.76363636,21.64625 C2.64969697,21.09875 3.80121212,19.6375 3.44606061,19.545 C3.09212121,19.45375 2.05090909,20.435 1.23151515,19.91 C2.76,19.08875 3.71151515,14.52 3.71151515,14.52 C3.71151515,14.52 0.944242424,16.1875 1.23151515,15.43375 C2.07272727,15.15875 3.71151515,13.97125 3.71151515,11.9625 C4.15636364,4.885 20.0557576,-2.78625 28.2484848,1.00375 C29.9793939,2.25 32.0569697,3.74375 32.0569697,3.74375 C32.0569697,3.74375 32.92,4.725 33.6509091,5.02125 C33.6278788,5.36375 32.4993939,5.3875 32.4993939,5.3875 C32.4993939,5.3875 33.5175758,6.2775 34.4484848,6.3 C34.4484848,6.94 32.4109091,6.665 32.4109091,6.665 C32.4109091,6.665 36.4545455,11.3825 36.5733333,12.9675 C36.6921212,14.5525 37.9466667,18.28875 38.7878788,18.81375 C38.1454545,19.36125 37.68,19.59 36.3963636,18.905 C36.1090909,19.4525 37.8581818,21.23375 38.0569697,22.23875 C38.2557576,23.24375 38.08,25.0025 38.7878788,26.2125 C37.9684848,26.9675 36.8387879,25.11625 36.8387879,25.11625 C36.8387879,25.11625 37.2157576,32.21875 37.9018182,33.3375 C37.4812121,33.7025 36.750303,32.24125 36.750303,32.24125 C36.750303,32.24125 35.1563636,33.47375 36.2193939,34.7075 C34.6036364,35.32375 34.4484848,30.9625 34.4484848,30.9625 C34.4484848,30.9625 31.4363636,33.77125 34.0945455,38.63625 C33.4084848,39.04625 31.5042424,35.43875 31.5042424,35.43875 C31.5042424,35.43875 31.1272727,37.33375 32.9442424,39.54875 C27.0981818,36.87625 30.3757576,30.5525 30.110303,29.045 C29.8448485,27.5375 27.5406061,26.625 27.5406061,26.625 C27.5406061,26.625 26.9648485,29.2975 29.0909091,31.94625 C27.6509091,32.31125 22.9563636,24.2725 22.9563636,24.2725 C22.9563636,24.2725 23.2436364,27.78875 24.44,28.8625 C23.7090909,29.525 21.1842424,25.41375 21.1842424,25.41375 C21.1842424,25.41375 22.689697,30.18625 24.0181818,31.6475 C22.6678788,32.425 17.4412121,23.51875 17.4412121,23.51875 C17.4412121,23.51875 19.0569697,28.3825 20.5418182,30.36875 C20.0109091,30.71 14.4739394,22.65 14.4739394,22.65 C14.4739394,22.65 14.1418182,23.40375 15.2278788,25.5275 C13.7442424,25.14 10.1793939,16.2575 9.7369697,16.8975 L9.7369697,16.8975 Z" id="Shape" sketch:type="MSShapeGroup"></path>
        </g>
    </g>
</svg>