<?xml version="1.0" encoding="UTF-8" standalone="no"?>
<svg width="30px" height="30px" viewBox="0 0 30 30" version="1.1" xmlns="http://www.w3.org/2000/svg" xmlns:xlink="http://www.w3.org/1999/xlink" xmlns:sketch="http://www.bohemiancoding.com/sketch/ns">
    <!-- Generator: Sketch 3.4.2 (15855) - http://www.bohemiancoding.com/sketch -->
    <title>Social Media Icon</title>
    <desc>Created with Sketch.</desc>
    <defs></defs>
    <g id="Page-1" stroke="none" stroke-width="1" fill="none" fill-rule="evenodd" sketch:type="MSPage">
        <g id="Social-Media-Icon" sketch:type="MSLayerGroup">
            <g id="Shopping-Cart-Copy-9" fill="#DA251C" sketch:type="MSShapeGroup">
                <path d="M0,5.00443555 C0,2.24056212 2.23055644,0 4.99018609,0 L19.0478239,0 L30,0 L30,24.9955644 C30,27.7594379 27.7696334,30 24.9955644,30 L0,30 L0,5.00443555 Z" id="Rectangle-16-Copy" transform="translate(15.000000, 15.000000) scale(-1, 1) translate(-15.000000, -15.000000) "></path>
            </g>
            <path d="M14.2045455,8.86363636 C13.4250379,8.86363636 12.6721212,8.99045455 11.9674621,9.24102273 C11.3071212,9.47573864 10.7191667,9.80710227 10.2208333,10.2259091 C9.29704545,11.0021591 8.78787879,11.9967614 8.78787879,13.0251136 C8.78787879,13.6003977 8.94299242,14.1588068 9.24829545,14.6855114 C9.56640152,15.2342045 10.0470076,15.736875 10.6374242,16.1388068 C11.1057197,16.4578977 11.4213636,16.96875 11.5045833,17.5440341 C11.5183712,17.6396591 11.529697,17.7357955 11.5380682,17.8324432 C11.5799242,17.7920455 11.6212879,17.750625 11.6631439,17.7076705 C12.0344318,17.3236364 12.5352273,17.1114205 13.0532576,17.1114205 C13.1354924,17.1114205 13.2182197,17.1170455 13.300947,17.1277841 C13.5988636,17.1671591 13.9031818,17.1871023 14.2050379,17.1871023 C14.9845455,17.1871023 15.7374621,17.0602841 16.4421212,16.8097159 C17.1024621,16.575 17.6904167,16.2436364 18.18875,15.8248295 C19.1125379,15.0485795 19.6217045,14.0539773 19.6217045,13.025625 C19.6217045,11.9972727 19.1130303,11.0026705 18.18875,10.2264205 C17.6904167,9.80761364 17.1024621,9.47625 16.4421212,9.24153409 C15.7374621,8.99096591 14.9845455,8.86414773 14.2050379,8.86414773 L14.2045455,8.86363636 Z M14.2045455,6.81818182 L14.2045455,6.81818182 C18.2837879,6.81818182 21.5909091,9.59744318 21.5909091,13.025625 C21.5909091,16.4538068 18.2837879,19.2330682 14.2045455,19.2330682 C13.8125758,19.2330682 13.4284848,19.2069886 13.0527652,19.1578977 C11.4661742,20.7988636 9.63386364,21.0934091 7.8030303,21.1363636 L7.8030303,20.7349432 C8.79181818,20.2338068 9.58806818,19.3210227 9.58806818,18.2783523 C9.58806818,18.1326136 9.57723485,17.9899432 9.55704545,17.8503409 C7.88674242,16.7125568 6.81818182,14.9739205 6.81818182,13.0261364 C6.81818182,9.59795455 10.125303,6.81869318 14.2045455,6.81869318 L14.2045455,6.81818182 Z M22.1448864,20.731875 C22.1448864,21.6257386 22.7037879,22.408125 23.5606061,22.8376705 L23.5606061,23.1818182 C21.9735227,23.145 20.5169318,22.8923864 19.1420833,21.4861364 C18.8165909,21.5285795 18.4837121,21.5505682 18.1439394,21.5505682 C16.6750379,21.5505682 15.3213636,21.1389205 14.2414773,20.4475568 C16.4677273,20.439375 18.5693939,19.6989205 20.1633712,18.3591477 C20.9665152,17.6841477 21.6007576,16.8915341 22.0468939,16.0043182 C22.5201136,15.0634091 22.7604167,14.0616477 22.7604167,13.025625 C22.7604167,12.8589205 22.7535227,12.6927273 22.7412121,12.5275568 C23.8580303,13.4853409 24.5454545,14.7908523 24.5454545,16.2298295 C24.5454545,17.8994318 23.619697,19.3895455 22.1719697,20.3647159 C22.1542424,20.484375 22.1448864,20.6071023 22.1448864,20.731875 L22.1448864,20.731875 Z" id="Shape-Copy-18" fill="#FFFFFF" sketch:type="MSShapeGroup"></path>
        </g>
    </g>
</svg>