<?xml version="1.0" encoding="UTF-8" standalone="no"?>
<svg width="31px" height="31px" viewBox="0 0 31 31" version="1.1" xmlns="http://www.w3.org/2000/svg" xmlns:xlink="http://www.w3.org/1999/xlink" xmlns:sketch="http://www.bohemiancoding.com/sketch/ns">
    <!-- Generator: Sketch 3.4.2 (15855) - http://www.bohemiancoding.com/sketch -->
    <title>wellaicon</title>
    <desc>Created with Sketch.</desc>
    <defs></defs>
    <g id="Page-1" stroke="none" stroke-width="1" fill="none" fill-rule="evenodd" sketch:type="MSPage">
        <g id="wellaicon" sketch:type="MSLayerGroup" fill="#DA251C">
            <g id="Group" sketch:type="MSShapeGroup">
                <path d="M3.246,16.398 C3.246,16.398 3.253,16.402 3.261,16.408 L3.247,16.408 C1.696,16.47 0.479,17.65 0.536,19.036 C0.593,20.422 1.902,21.497 3.453,21.432 C4.536,21.387 5.454,20.797 5.892,19.975 C5.94,19.905 7.68,17.411 10.527,16.771 C10.597,16.765 10.918,16.702 11.408,16.597 L10.661,15.839 L3.246,16.398 L3.246,16.398 Z M3.418,20.62 C2.315,20.665 1.386,19.938 1.348,19.003 C1.309,18.065 2.176,17.269 3.278,17.223 C4.381,17.177 5.309,17.903 5.347,18.839 C5.386,19.774 4.521,20.574 3.418,20.62 L3.418,20.62 Z" id="Shape"></path>
                <path d="M10.205,14.55 C7.383,14.156 5.491,11.953 5.352,11.788 C4.859,10.975 3.879,10.439 2.772,10.485 C1.22,10.548 0.004,11.727 0.061,13.113 C0.118,14.499 1.427,15.573 2.978,15.509 C3.028,15.508 3.077,15.501 3.126,15.496 L10.772,15.464 L11.807,16.512 L22.164,16.584 L21.717,16.306 C21.716,16.307 10.651,14.55 10.205,14.55 L10.205,14.55 Z M2.943,14.696 C1.841,14.741 0.913,14.016 0.874,13.08 C0.835,12.144 1.701,11.344 2.803,11.299 C3.906,11.254 4.834,11.98 4.873,12.916 C4.912,13.852 4.046,14.65 2.943,14.696 L2.943,14.696 Z M12.176,16.05 C11.939,16.06 11.738,15.875 11.729,15.638 C11.72,15.402 11.904,15.201 12.141,15.193 C12.378,15.182 12.578,15.368 12.588,15.603 C12.597,15.84 12.413,16.04 12.176,16.05 L12.176,16.05 Z" id="Shape"></path>
                <path d="M30.25,29.596 C28.297,28.014 27.945,21.045 27.945,21.045 C27.945,21.045 28.101,21.553 28.629,21.845 C27.945,18.936 27.613,16.615 27.613,16.615 C27.613,16.615 28.16,17.434 28.746,17.24 C28.199,16.713 27.75,15.365 27.75,15.365 C27.75,15.365 28.467,16.023 28.804,15.951 C28.366,15.305 27.711,12.711 27.711,12.711 C27.711,12.711 28.848,13.77 29.375,13.711 C28.892,13.389 28.043,11.402 28.043,11.402 C28.043,11.402 28.994,12.188 29.359,11.91 C28.759,11.69 28.336,10.953 28.336,10.953 C28.336,10.953 29.639,11.164 30.033,10.855 C29.037,10.753 28.863,10.075 28.863,10.075 C28.863,10.075 29.843,10.007 30.072,9.587 C27.926,10.109 28.291,6.522 27.867,5.277 C27.442,4.032 25.427,-1.541 21.718,0.412 C19.539,-0.635 17.336,1.51 16.623,3.789 C15.739,6.615 16.401,9.959 13.44,11.363 C14.016,11.519 14.914,10.894 14.914,10.894 C14.914,10.894 15.073,11.255 14.81,11.392 C15.279,11.617 16.33,10.601 16.33,10.601 C16.33,10.601 15.804,11.617 15.453,11.792 C15.493,12.095 16.098,11.655 16.098,11.655 C16.098,11.655 15.619,12.866 15.102,13.237 C15.112,13.607 15.902,13.012 16.39,12.71 C16.198,12.912 15.54,13.954 14.578,14.554 L13.242,14.656 C13.967,14.766 14.777,14.891 15.602,15.018 C15.591,15.041 15.583,15.065 15.57,15.09 C15.606,15.074 15.635,15.047 15.67,15.027 C16.23,15.115 16.794,15.203 17.345,15.29 C19.746,14.752 21.856,14.274 21.856,14.274 L22.315,13.964 L18.392,14.263 C18.284,13.744 18.175,13.215 18.068,12.651 C17.796,11.956 19.649,3.983 20.294,3.885 C21.72,5.954 23.866,8.883 24.882,9.722 C27.575,12.026 24.272,13.952 23.593,14.447 C22.89,15.265 24.686,20.595 25.7,21.025 C25.856,21.351 25.249,24.497 25.758,25.414 C26.266,26.331 27.486,27.485 26.794,30.063 C28.161,31.839 27.146,23.425 27.146,23.425 C27.146,23.425 28.513,29.77 30.25,29.596 L30.25,29.596 Z M15.939,13.978 C15.939,13.978 15.908,14.176 15.819,14.458 L15.087,14.514 C15.55,14.348 15.939,13.978 15.939,13.978 L15.939,13.978 Z M16.355,14.417 C16.387,14.376 16.408,14.348 16.408,14.348 C16.408,14.348 16.408,14.375 16.41,14.413 L16.355,14.417 L16.355,14.417 Z" id="Shape"></path>
            </g>
        </g>
    </g>
</svg>