<?xml version="1.0" standalone="no"?>
<!DOCTYPE svg PUBLIC "-//W3C//DTD SVG 1.1//EN" "http://www.w3.org/Graphics/SVG/1.1/DTD/svg11.dtd">
<svg width="100%" height="100%" viewBox="0 0 30 30" version="1.1" xmlns="http://www.w3.org/2000/svg" xmlns:xlink="http://www.w3.org/1999/xlink" xml:space="preserve" style="fill-rule:evenodd;clip-rule:evenodd;stroke-linejoin:round;stroke-miterlimit:1.41421;">
    <g id="Rectangle-54-+-Shape-Copy-11">
        <path d="M25,0C27.762,0 30,2.239 30,5.001L30,24.999C30,27.761 27.761,30 25,30L5,30C2.238,30 0,27.761 0,24.999L0,5.001C0,2.239 2.239,0 5,0L25,0ZM14.543,19.191C13.962,18.932 13.269,19.466 13.269,19.466L8.744,23.772C8.744,23.772 8.179,24.431 8.322,24.836C8.457,25.214 8.681,25.403 8.998,25.535L13.543,26.776C13.543,26.776 14.095,26.876 14.512,26.77C15.103,26.621 14.994,25.82 14.994,25.82L15.096,19.989C15.096,19.989 15.073,19.427 14.543,19.189L14.543,19.191ZM17.586,18.266C17.125,18.668 17.516,19.399 17.516,19.399L20.989,24.413C20.989,24.413 21.56,25.075 22.053,25.075C22.551,25.075 23.04,24.722 23.04,24.722L25.787,21.329C25.787,21.329 26.063,20.901 26.069,20.526C26.08,19.993 25.149,19.847 25.149,19.847L18.648,18.041C18.648,18.041 18.011,17.895 17.586,18.265L17.586,18.266ZM12.862,17.026C12.881,16.41 12.007,16.04 12.007,16.04L6.218,13.512C6.218,13.512 5.361,13.206 4.944,13.419C4.625,13.582 4.342,13.876 4.315,14.138L3.937,18.149C3.937,18.149 3.881,18.845 4.09,19.162C4.384,19.611 5.355,19.296 5.355,19.296L12.114,18.006C12.376,17.853 12.837,17.839 12.862,17.024L12.862,17.026ZM17.257,15.738C17.59,16.226 18.507,16.084 18.507,16.084L24.995,14.445C24.995,14.445 25.879,14.134 26.004,13.719C26.128,13.305 25.859,12.806 25.859,12.806L22.759,9.648C22.759,9.648 22.491,9.249 21.932,9.209C21.317,9.164 20.94,9.807 20.94,9.807L17.274,14.793C17.274,14.793 16.95,15.289 17.257,15.738ZM14.193,13.794C14.957,13.632 15.078,12.672 15.078,12.672L15.026,4.688C15.026,4.688 14.91,3.704 14.398,3.437C13.595,3.016 13.358,3.235 13.127,3.265L7.742,4.994C7.742,4.994 7.215,5.146 6.94,5.525C6.548,6.065 7.339,6.853 7.339,6.853L12.936,13.45C12.936,13.45 13.488,13.945 14.191,13.794L14.193,13.794Z" style="fill:rgb(218,37,28);"/>
    </g>
</svg>
