<?xml version="1.0" encoding="UTF-8" standalone="no"?>
<svg width="26px" height="32px" viewBox="0 0 26 32" version="1.1" xmlns="http://www.w3.org/2000/svg" xmlns:xlink="http://www.w3.org/1999/xlink" xmlns:sketch="http://www.bohemiancoding.com/sketch/ns">
    <!-- Generator: Sketch 3.4.2 (15855) - http://www.bohemiancoding.com/sketch -->
    <title>Shape</title>
    <desc>Created with Sketch.</desc>
    <defs></defs>
    <g id="Page-1" stroke="none" stroke-width="1" fill="none" fill-rule="evenodd" sketch:type="MSPage">
        <path d="M16.027,20.421 C15.487,20.966 15.944,21.956 15.944,21.956 L20.009,28.744 C20.009,28.744 20.677,29.639 21.255,29.639 C21.836,29.639 22.41,29.162 22.41,29.162 L25.624,24.568 C25.624,24.568 25.948,23.988 25.955,23.481 C25.967,22.759 24.878,22.561 24.878,22.561 L17.269,20.117 C17.269,20.117 16.523,19.919 16.027,20.42 L16.027,20.421 Z M15.642,17 C16.031,17.66 17.105,17.468 17.105,17.468 L24.697,15.249 C24.697,15.249 25.732,14.828 25.879,14.267 C26.024,13.706 25.708,13.029 25.708,13.029 L22.08,8.755 C22.08,8.755 21.766,8.215 21.113,8.16 C20.394,8.099 19.951,8.969 19.951,8.969 L15.661,15.719 C15.661,15.719 15.282,16.391 15.641,16.999 L15.642,17 Z M12.055,14.368 C12.949,14.148 13.091,12.849 13.091,12.849 L13.03,2.041 C13.03,2.041 12.895,0.708 12.296,0.346 C11.356,-0.224 11.078,0.074 10.809,0.113 L4.506,2.455 C4.506,2.455 3.889,2.659 3.567,3.174 C3.108,3.904 4.033,4.972 4.033,4.972 L10.584,13.902 C10.584,13.902 11.231,14.571 12.054,14.367 L12.055,14.368 Z M10.498,18.742 C10.521,17.908 9.497,17.408 9.497,17.408 L2.722,13.985 C2.722,13.985 1.718,13.571 1.231,13.859 C0.858,14.08 0.527,14.479 0.494,14.832 L0.053,20.264 C0.053,20.264 -0.013,21.205 0.231,21.633 C0.576,22.241 1.713,21.817 1.713,21.817 L9.622,20.069 C9.929,19.862 10.468,19.844 10.498,18.741 L10.498,18.742 Z M12.465,21.673 C11.786,21.324 10.974,22.046 10.974,22.046 L5.678,27.876 C5.678,27.876 5.017,28.768 5.185,29.315 C5.343,29.828 5.605,30.083 5.976,30.263 L11.295,31.942 C11.295,31.942 11.94,32.076 12.428,31.934 C13.121,31.733 12.993,30.648 12.993,30.648 L13.113,22.754 C13.113,22.754 13.086,21.994 12.465,21.672 L12.465,21.673 Z" id="Shape" fill="#DA251C" sketch:type="MSShapeGroup"></path>
    </g>
</svg>